<svg width="261" height="88" viewBox="0 0 261 88" fill="none" xmlns="http://www.w3.org/2000/svg">
<path d="M104.407 21.7258V47.6086H100.517V35.1621H87.5048V47.6086H83.6154V21.7258H87.5048V33.8185H100.517V21.7258H104.407Z" fill="#B07E69"/>
<path d="M111.123 46.265V34.9146H121.483V33.3235H111.123V23.0695H123.534V21.7258H107.234V47.6086H123.534V46.265H111.123Z" fill="#B07E69"/>
<path d="M143.328 46.0175H130.245V21.7258H126.709V47.6086H143.328V46.0175Z" fill="#B07E69"/>
<path d="M162.344 29.0091C162.344 36.4698 154.106 35.9748 150.039 35.9748V47.608H146.15V21.7252H150.039C154.106 21.7252 162.344 21.6191 162.344 29.0091ZM158.136 29.0091C157.96 23.3163 153.575 22.9627 152.797 22.9627H150.039V34.5958H152.797C154.212 34.5958 158.313 34.525 158.136 29.0091Z" fill="#B07E69"/>
<path d="M180.216 37.9553H176.786V21.7607H174.63L164.517 37.9553L162.75 40.784H173.605V47.6082H176.786V40.784H180.216V37.9553ZM166.109 37.9553L173.605 25.9684V37.9553H166.109Z" fill="#B07E69"/>
<path d="M199.247 29.0091C199.247 36.4698 191.008 35.9748 186.943 35.9748V47.608H183.054V21.7252H186.943C191.008 21.7252 199.247 21.6191 199.247 29.0091ZM195.041 29.0091C194.863 23.3163 190.479 22.9627 189.7 22.9627H186.943V34.5958H189.7C191.115 34.5958 195.217 34.525 195.041 29.0091Z" fill="#B07E69"/>
<path d="M205.969 46.265V34.9146H216.329V33.3235H205.969V23.0695H218.379V21.7258H202.08V47.6086H218.379V46.265H205.969Z" fill="#B07E69"/>
<path d="M242.248 21.7258H221.208V23.317H229.801V47.6086H233.69V23.317H242.248V21.7258Z" fill="#B07E69"/>
<path d="M260.75 40.9252C260.75 43.6125 258.769 48.0677 252.652 48.0677C247.808 48.0677 244.698 45.9815 243.956 40.6777H245.121C245.899 45.5218 249.93 46.5826 252.264 46.5826C256.401 46.5826 257.392 43.6832 257.392 42.4103C257.392 39.6876 255.164 38.2026 250.921 36.0103C248.233 34.6314 243.672 32.3684 243.672 27.9486C243.672 22.3263 249.223 21.1948 251.203 21.1948C256.153 21.1948 258.203 23.8114 258.91 27.5243H257.639C257.108 25.5793 255.693 22.6445 251.238 22.6445C249.047 22.6445 246.713 24.4125 246.713 26.6401C246.713 29.2568 249.86 30.9187 253.112 32.5805C259.264 35.6568 260.75 37.849 260.75 40.9252Z" fill="#B07E69"/>
<path d="M87.6608 66.2909C86.7139 66.2909 85.8981 66.0542 85.2137 65.5807C84.529 65.1015 84.0013 64.4399 83.6305 63.5956C83.2598 62.7455 83.0743 61.7615 83.0743 60.6433C83.0743 59.4511 83.2739 58.4471 83.6733 57.6313C84.0783 56.8154 84.626 56.1994 85.3163 55.7831C86.0122 55.3607 86.7937 55.1497 87.6608 55.1497C88.8074 55.1497 89.7287 55.4377 90.4248 56.0141C91.1264 56.5844 91.6086 57.3289 91.8709 58.2473L90.4333 58.5382C90.211 57.871 89.8543 57.3404 89.3636 56.9467C88.8788 56.5473 88.3111 56.3477 87.6608 56.3477C87.0961 56.3477 86.5742 56.5104 86.095 56.8354C85.6215 57.1549 85.2393 57.6341 84.9484 58.2732C84.6575 58.912 84.5119 59.702 84.5119 60.6433C84.5119 61.499 84.626 62.2607 84.8542 62.9281C85.0881 63.5956 85.436 64.1204 85.8981 64.5026C86.366 64.8848 86.9536 65.0759 87.6608 65.0759C88.5109 65.0759 89.184 64.8477 89.6803 64.3913C90.1823 63.9349 90.4333 63.336 90.4333 62.5943H91.888C91.888 63.3644 91.7112 64.0262 91.3576 64.5796C91.0038 65.1273 90.5075 65.5495 89.8686 65.846C89.2354 66.1428 88.4994 66.2909 87.6608 66.2909Z" fill="#B49A7E"/>
<path d="M96.3928 66.0862V54.4143H97.7278V66.0862H96.3928Z" fill="#B49A7E"/>
<path d="M103.243 66.0859V57.8881H104.578V66.0859H103.243ZM103.397 56.5106L102.73 55.9713L105.605 52.968L106.538 53.7294L103.397 56.5106Z" fill="#B49A7E"/>
<path d="M116.042 66.0858V61.2766C116.042 60.4952 115.854 59.902 115.478 59.4967C115.107 59.0861 114.599 58.8807 113.954 58.8807C113.464 58.8807 113.039 59.0147 112.68 59.2828C112.32 59.551 112.044 59.936 111.849 60.4382C111.655 60.9345 111.558 61.5278 111.558 62.2181H111.045C111.045 61.2653 111.171 60.4523 111.422 59.7792C111.673 59.1061 112.038 58.5926 112.517 58.239C113.002 57.8796 113.589 57.7 114.28 57.7C114.924 57.7 115.475 57.8453 115.931 58.1362C116.393 58.4214 116.747 58.8323 116.992 59.3685C117.238 59.9048 117.36 60.5408 117.36 61.2766V66.0858H116.042ZM110.224 66.0858V57.9052H111.37L111.558 59.7879V66.0858H110.224Z" fill="#B49A7E"/>
<path d="M123.273 55.972C123 55.972 122.783 55.895 122.623 55.7409C122.463 55.5813 122.384 55.373 122.384 55.1164C122.384 54.8654 122.463 54.6656 122.623 54.5173C122.783 54.3691 123 54.2949 123.273 54.2949C123.547 54.2949 123.764 54.3691 123.924 54.5173C124.083 54.6656 124.163 54.8654 124.163 55.1164C124.163 55.373 124.083 55.5813 123.924 55.7409C123.764 55.895 123.547 55.972 123.273 55.972ZM122.606 66.0865V57.8887H123.941V66.0865H122.606Z" fill="#B49A7E"/>
<path d="M132.461 66.291C131.805 66.291 131.192 66.1142 130.621 65.7607C130.057 65.4069 129.6 64.9077 129.252 64.263C128.904 63.6185 128.73 62.8569 128.73 61.9784C128.73 61.077 128.904 60.307 129.252 59.6679C129.6 59.029 130.057 58.5414 130.621 58.2047C131.192 57.8681 131.805 57.7 132.461 57.7C132.923 57.7 133.337 57.7711 133.702 57.9138C134.073 58.0507 134.395 58.2418 134.669 58.4872C134.943 58.7325 135.168 59.0119 135.345 59.3258C135.527 59.6338 135.662 59.959 135.747 60.3011L134.378 60.4211C134.235 59.9475 133.996 59.5737 133.659 59.3C133.328 59.0206 132.923 58.8807 132.444 58.8807C132.039 58.8807 131.657 58.9976 131.297 59.2317C130.944 59.4599 130.656 59.805 130.433 60.267C130.211 60.7234 130.099 61.2937 130.099 61.9784C130.099 62.6116 130.199 63.1621 130.399 63.6298C130.604 64.0919 130.884 64.4513 131.238 64.7081C131.591 64.9648 131.993 65.0932 132.444 65.0932C133.077 65.0932 133.556 64.9392 133.882 64.6311C134.212 64.3172 134.378 63.8838 134.378 63.3304H135.747C135.747 63.9007 135.613 64.4086 135.345 64.8535C135.077 65.2984 134.694 65.6494 134.198 65.906C133.708 66.1628 133.129 66.291 132.461 66.291Z" fill="#B49A7E"/>
<path d="M145.444 66.0858L145.273 64.2888V60.7803C145.273 60.0445 145.116 59.5169 144.803 59.1974C144.489 58.8722 144.018 58.7095 143.391 58.7095C143.037 58.7095 142.715 58.7609 142.424 58.8635C142.139 58.9664 141.91 59.126 141.739 59.3427C141.574 59.5538 141.491 59.8278 141.491 60.1642H140.002C140.002 59.5709 140.148 59.0946 140.439 58.7353C140.73 58.3702 141.129 58.1078 141.636 57.9481C142.15 57.7826 142.735 57.7 143.391 57.7C144.018 57.7 144.575 57.8054 145.059 58.0164C145.544 58.2275 145.924 58.5642 146.198 59.0262C146.471 59.4826 146.608 60.0787 146.608 60.8146V66.0858H145.444ZM142.655 66.291C141.982 66.291 141.425 66.1713 140.986 65.9318C140.547 65.6921 140.219 65.3813 140.002 64.999C139.785 64.6168 139.677 64.2146 139.677 63.7925C139.677 63.2391 139.814 62.7884 140.088 62.4404C140.367 62.0925 140.747 61.8387 141.226 61.6788C141.705 61.5135 142.244 61.4306 142.843 61.4306C143.271 61.4306 143.699 61.4736 144.127 61.559C144.56 61.6447 144.982 61.7617 145.393 61.9098V62.7484C145.051 62.6116 144.663 62.5031 144.229 62.4233C143.801 62.3434 143.408 62.3035 143.048 62.3035C142.501 62.3035 142.039 62.4176 141.662 62.6458C141.286 62.8684 141.097 63.2504 141.097 63.7925C141.097 64.1919 141.24 64.5342 141.525 64.8192C141.816 65.1045 142.278 65.2472 142.912 65.2472C143.356 65.2472 143.756 65.1444 144.109 64.9392C144.469 64.7281 144.751 64.4656 144.957 64.1519C145.168 63.8381 145.273 63.5244 145.273 63.2105H145.598C145.598 63.7582 145.479 64.266 145.239 64.7337C145.005 65.2014 144.669 65.578 144.229 65.8633C143.79 66.1485 143.265 66.291 142.655 66.291Z" fill="#B49A7E"/>
<path d="M160.798 64.6652L163.981 55.3381H165.401L161.568 66.0859H160.181L156.382 55.3381H157.803L160.969 64.6652H160.798Z" fill="#B49A7E"/>
<path d="M171.686 66.291C170.979 66.291 170.345 66.1114 169.786 65.752C169.233 65.3869 168.794 64.8821 168.469 64.2374C168.149 63.5927 167.989 62.8513 167.989 62.0126C167.989 61.1169 168.149 60.3469 168.469 59.7022C168.788 59.0577 169.224 58.5642 169.778 58.2219C170.337 57.8739 170.973 57.7 171.686 57.7C172.308 57.7 172.838 57.8253 173.278 58.0763C173.717 58.3273 174.07 58.6668 174.339 59.0946C174.607 59.5225 174.792 60.0074 174.895 60.5493C175.003 61.0855 175.034 61.6417 174.989 62.2181H169.067V61.3966H174.108L173.714 61.6532C173.731 61.3167 173.711 60.9801 173.654 60.6434C173.603 60.307 173.503 59.9989 173.355 59.7193C173.206 59.434 172.998 59.2058 172.73 59.0347C172.462 58.8635 172.119 58.7781 171.703 58.7781C171.178 58.7781 170.739 58.9121 170.385 59.1802C170.032 59.4484 169.766 59.802 169.589 60.2412C169.413 60.6749 169.324 61.1456 169.324 61.6532V62.2009C169.324 62.7712 169.41 63.2819 169.581 63.7326C169.758 64.1832 170.02 64.5398 170.368 64.8023C170.716 65.0645 171.155 65.1958 171.686 65.1958C172.216 65.1958 172.653 65.0674 172.995 64.8107C173.337 64.5541 173.546 64.1747 173.62 63.6728H175.006C174.921 64.2146 174.726 64.6823 174.424 65.076C174.122 65.4639 173.737 65.7635 173.269 65.9745C172.801 66.1856 172.273 66.291 171.686 66.291Z" fill="#B49A7E"/>
<path d="M182.119 66.291C181.675 66.291 181.276 66.2055 180.922 66.0343C180.568 65.8632 180.289 65.6066 180.085 65.2643C179.879 64.922 179.777 64.494 179.777 63.9807V55.6289H181.093V63.9465C181.093 64.7907 181.488 65.2129 182.273 65.2129C182.508 65.2129 182.733 65.1873 182.95 65.1358C183.174 65.0844 183.421 65.0074 183.694 64.9048L183.883 65.8632C183.592 65.9886 183.302 66.0914 183.011 66.1712C182.725 66.2511 182.43 66.291 182.119 66.291ZM178.458 58.8294V57.9051H183.677V58.8294H178.458Z" fill="#B49A7E"/>
<path d="M190.848 66.291C190.141 66.291 189.507 66.1114 188.947 65.752C188.394 65.3869 187.956 64.8821 187.631 64.2374C187.31 63.5927 187.151 62.8513 187.151 62.0126C187.151 61.1169 187.31 60.3469 187.631 59.7022C187.95 59.0577 188.386 58.5642 188.939 58.2219C189.498 57.8739 190.134 57.7 190.848 57.7C191.47 57.7 192 57.8253 192.44 58.0763C192.878 58.3273 193.232 58.6668 193.501 59.0946C193.768 59.5225 193.954 60.0074 194.056 60.5493C194.165 61.0855 194.197 61.6417 194.152 62.2181H188.229V61.3966H193.269L192.876 61.6532C192.893 61.3167 192.872 60.9801 192.815 60.6434C192.763 60.307 192.663 59.9989 192.516 59.7193C192.368 59.434 192.16 59.2058 191.891 59.0347C191.624 58.8635 191.282 58.7781 190.865 58.7781C190.34 58.7781 189.9 58.9121 189.546 59.1802C189.193 59.4484 188.928 59.802 188.75 60.2412C188.574 60.6749 188.485 61.1456 188.485 61.6532V62.2009C188.485 62.7712 188.572 63.2819 188.741 63.7326C188.919 64.1832 189.182 64.5398 189.529 64.8023C189.878 65.0645 190.316 65.1958 190.848 65.1958C191.377 65.1958 191.815 65.0674 192.156 64.8107C192.499 64.5541 192.707 64.1747 192.781 63.6728H194.167C194.082 64.2146 193.889 64.6823 193.585 65.076C193.284 65.4639 192.898 65.7635 192.431 65.9745C191.963 66.1856 191.436 66.291 190.848 66.291Z" fill="#B49A7E"/>
<path d="M198.766 66.0861V57.8883H200.1V66.0861H198.766ZM199.69 62.3895C199.69 61.3511 199.79 60.4897 199.989 59.8053C200.189 59.115 200.48 58.6016 200.864 58.2649C201.25 57.9226 201.721 57.7515 202.274 57.7515C202.458 57.7515 202.623 57.7658 202.77 57.7944C202.924 57.8172 203.078 57.8543 203.232 57.9055L203.148 59.2233C202.987 59.1719 202.814 59.1291 202.625 59.0949C202.436 59.055 202.269 59.035 202.12 59.035C201.636 59.035 201.245 59.1749 200.948 59.4543C200.651 59.7283 200.434 60.1162 200.297 60.6181C200.167 61.1201 200.1 61.7106 200.1 62.3895H199.69Z" fill="#B49A7E"/>
<path d="M207.67 55.972C207.397 55.972 207.18 55.895 207.019 55.7409C206.861 55.5813 206.781 55.373 206.781 55.1164C206.781 54.8654 206.861 54.6656 207.019 54.5173C207.18 54.3691 207.397 54.2949 207.67 54.2949C207.943 54.2949 208.16 54.3691 208.321 54.5173C208.481 54.6656 208.559 54.8654 208.559 55.1164C208.559 55.373 208.481 55.5813 208.321 55.7409C208.16 55.895 207.943 55.972 207.67 55.972ZM207.002 66.0865V57.8887H208.338V66.0865H207.002Z" fill="#B49A7E"/>
<path d="M219.803 66.0858V61.2766C219.803 60.4952 219.615 59.902 219.237 59.4967C218.866 59.0861 218.359 58.8807 217.714 58.8807C217.224 58.8807 216.799 59.0147 216.439 59.2828C216.081 59.551 215.803 59.936 215.61 60.4382C215.415 60.9345 215.319 61.5278 215.319 62.2181H214.805C214.805 61.2653 214.931 60.4523 215.181 59.7792C215.432 59.1061 215.797 58.5926 216.276 58.239C216.762 57.8796 217.35 57.7 218.04 57.7C218.684 57.7 219.235 57.8453 219.69 58.1362C220.153 58.4214 220.506 58.8323 220.751 59.3685C220.996 59.9048 221.12 60.5408 221.12 61.2766V66.0858H219.803ZM213.983 66.0858V57.9052H215.131L215.319 59.7879V66.0858H213.983Z" fill="#B49A7E"/>
<path d="M231.345 66.0859L231.174 64.2889V60.7803C231.174 60.0445 231.018 59.517 230.703 59.1974C230.391 58.8723 229.92 58.7096 229.291 58.7096C228.937 58.7096 228.616 58.761 228.326 58.8636C228.039 58.9664 227.811 59.1261 227.64 59.3428C227.475 59.5539 227.393 59.8278 227.393 60.1643H225.903C225.903 59.571 226.048 59.0946 226.339 58.7354C226.631 58.3703 227.031 58.1078 227.538 57.9482C228.05 57.7827 228.636 57.7 229.291 57.7C229.92 57.7 230.475 57.8054 230.961 58.0165C231.445 58.2276 231.825 58.5642 232.098 59.0263C232.371 59.4827 232.51 60.0788 232.51 60.8146V66.0859H231.345ZM228.556 66.2911C227.883 66.2911 227.326 66.1714 226.887 65.9319C226.447 65.6922 226.119 65.3813 225.903 64.9991C225.686 64.6169 225.577 64.2147 225.577 63.7926C225.577 63.2392 225.714 62.7884 225.989 62.4405C226.269 62.0925 226.647 61.8387 227.126 61.6788C227.605 61.5135 228.146 61.4307 228.744 61.4307C229.172 61.4307 229.599 61.4736 230.028 61.5591C230.46 61.6448 230.883 61.7617 231.293 61.9099V62.7485C230.953 62.6116 230.564 62.5032 230.13 62.4233C229.703 62.3435 229.308 62.3036 228.95 62.3036C228.402 62.3036 227.939 62.4177 227.562 62.6459C227.187 62.8685 226.998 63.2505 226.998 63.7926C226.998 64.1919 227.141 64.5342 227.425 64.8193C227.716 65.1045 228.18 65.2473 228.812 65.2473C229.258 65.2473 229.657 65.1444 230.011 64.9392C230.369 64.7282 230.653 64.4657 230.857 64.152C231.068 63.8381 231.174 63.5244 231.174 63.2105H231.499C231.499 63.7583 231.38 64.2661 231.139 64.7338C230.907 65.2015 230.569 65.5781 230.13 65.8633C229.69 66.1486 229.165 66.2911 228.556 66.2911ZM228.753 56.5106L228.085 55.9713L230.961 52.968L231.894 53.7294L228.753 56.5106Z" fill="#B49A7E"/>
<path d="M237.673 66.0861V57.8883H239.009V66.0861H237.673ZM238.597 62.3895C238.597 61.3511 238.697 60.4897 238.897 59.8053C239.098 59.115 239.389 58.6016 239.771 58.2649C240.159 57.9226 240.63 57.7515 241.183 57.7515C241.365 57.7515 241.53 57.7658 241.68 57.7944C241.834 57.8172 241.988 57.8543 242.142 57.9055L242.055 59.2233C241.895 59.1719 241.721 59.1291 241.532 59.0949C241.346 59.055 241.177 59.035 241.029 59.035C240.543 59.035 240.153 59.1749 239.855 59.4543C239.56 59.7283 239.344 60.1162 239.205 60.6181C239.075 61.1201 239.009 61.7106 239.009 62.3895H238.597Z" fill="#B49A7E"/>
<path d="M246.578 55.972C246.305 55.972 246.088 55.895 245.929 55.7409C245.769 55.5813 245.688 55.373 245.688 55.1164C245.688 54.8654 245.769 54.6656 245.929 54.5173C246.088 54.3691 246.305 54.2949 246.578 54.2949C246.853 54.2949 247.07 54.3691 247.229 54.5173C247.389 54.6656 247.469 54.8654 247.469 55.1164C247.469 55.373 247.389 55.5813 247.229 55.7409C247.07 55.895 246.853 55.972 246.578 55.972ZM245.912 66.0865V57.8887H247.246V66.0865H245.912Z" fill="#B49A7E"/>
<path d="M257.958 66.0858L257.786 64.2888V60.7803C257.786 60.0445 257.63 59.5169 257.315 59.1974C257.001 58.8722 256.53 58.7095 255.903 58.7095C255.55 58.7095 255.227 58.7609 254.936 58.8635C254.652 58.9664 254.424 59.126 254.253 59.3427C254.086 59.5538 254.003 59.8278 254.003 60.1642H252.515C252.515 59.5709 252.66 59.0946 252.951 58.7353C253.242 58.3702 253.641 58.1078 254.148 57.9481C254.663 57.7826 255.248 57.7 255.903 57.7C256.53 57.7 257.088 57.8054 257.571 58.0164C258.057 58.2275 258.437 58.5642 258.71 59.0262C258.984 59.4826 259.12 60.0787 259.12 60.8146V66.0858H257.958ZM255.168 66.291C254.493 66.291 253.938 66.1713 253.5 65.9318C253.059 65.6921 252.732 65.3813 252.515 64.999C252.298 64.6168 252.19 64.2146 252.19 63.7925C252.19 63.2391 252.326 62.7884 252.6 62.4404C252.879 62.0925 253.259 61.8387 253.738 61.6788C254.218 61.5135 254.756 61.4306 255.357 61.4306C255.784 61.4306 256.211 61.4736 256.639 61.559C257.073 61.6447 257.496 61.7617 257.906 61.9098V62.7484C257.563 62.6116 257.175 62.5031 256.743 62.4233C256.313 62.3434 255.921 62.3035 255.561 62.3035C255.014 62.3035 254.552 62.4176 254.174 62.6458C253.799 62.8684 253.61 63.2504 253.61 63.7925C253.61 64.1919 253.754 64.5342 254.038 64.8192C254.328 65.1045 254.79 65.2472 255.424 65.2472C255.869 65.2472 256.268 65.1444 256.621 64.9392C256.981 64.7281 257.263 64.4656 257.47 64.1519C257.68 63.8381 257.786 63.5244 257.786 63.2105H258.112C258.112 63.7582 257.992 64.266 257.752 64.7337C257.517 65.2014 257.181 65.578 256.743 65.8633C256.302 66.1485 255.778 66.291 255.168 66.291Z" fill="#B49A7E"/>
<path fill-rule="evenodd" clip-rule="evenodd" d="M43.557 36.9706C42.2163 38.0862 41.2338 39.4725 40.6232 40.9838C40.4917 40.9974 40.3598 41.0082 40.2279 41.0161C40.8948 41.3911 41.4076 42.0028 41.6568 42.733C41.6885 42.6049 41.723 42.4773 41.7604 42.3507C43.3575 42.025 44.8995 41.3113 46.2401 40.1957C47.581 39.0803 48.5633 37.694 49.174 36.1826C51.5803 35.931 54.0532 36.6875 55.9232 38.3907C55.3476 40.8536 53.7387 42.8783 51.6136 44.0345C50.254 43.1354 48.6588 42.5498 46.9222 42.3906C45.1854 42.2313 43.5103 42.5169 42.0098 43.1537C41.9071 43.0705 41.8066 42.9849 41.7078 42.8973C41.7933 43.2018 41.8336 43.5248 41.8214 43.8579C41.8046 44.3115 41.6921 44.7391 41.5038 45.1217C41.6167 45.0533 41.7314 44.9875 41.8475 44.9243C43.207 45.8234 44.8021 46.409 46.5389 46.5683C48.2758 46.7277 49.9507 46.4419 51.4511 45.8051C53.344 47.3396 54.5616 49.6449 54.6645 52.1928C52.539 53.5163 50.0004 53.8203 47.6982 53.1643C47.3801 51.5399 46.6613 49.97 45.528 48.6078C44.3949 47.2457 42.9819 46.2534 41.4425 45.645C41.4312 45.526 41.4222 45.4067 41.416 45.2873C41.0427 45.9427 40.4405 46.4477 39.7219 46.6971C39.838 46.725 39.9535 46.7554 40.0685 46.7882C40.3866 48.4124 41.1054 49.9823 42.2387 51.3445C43.372 52.7066 44.785 53.6989 46.3244 54.3075C46.5522 56.7076 45.7789 59.1665 44.0653 61.0205C41.6028 60.4641 39.5723 58.8763 38.3998 56.7695C39.3235 55.3959 39.9254 53.7777 40.0871 52.0129C40.249 50.2484 39.9515 48.5477 39.2932 47.029C39.3694 46.9368 39.4473 46.8463 39.5271 46.7576C39.227 46.84 38.9094 46.8789 38.582 46.8667C38.1341 46.8502 37.7115 46.7402 37.3327 46.5563C37.395 46.6581 37.4553 46.7613 37.5135 46.8656C36.5897 48.2394 35.9879 49.8576 35.826 51.6222C35.6643 53.3867 35.9616 55.0876 36.6201 56.6063C35.0949 58.4514 32.831 59.6394 30.3298 59.7534C28.9707 57.5957 28.6676 55.0063 29.3575 52.6694C30.9548 52.3438 32.4968 51.63 33.8375 50.5144C35.1781 49.399 36.1606 48.0127 36.7713 46.5015C36.9028 46.4877 37.0347 46.477 37.1665 46.4693C36.4997 46.0943 35.9869 45.4825 35.7376 44.7522C35.706 44.8803 35.6714 45.0079 35.634 45.1347C34.037 45.4602 32.495 46.1741 31.1541 47.2895C29.8134 48.4049 28.8311 49.7914 28.2205 51.3026C25.8141 51.5542 23.3412 50.7977 21.4714 49.0945C22.0469 46.6316 23.6557 44.6071 25.7808 43.4507C27.1405 44.3498 28.7356 44.9354 30.4722 45.0946C32.2091 45.2541 33.8842 44.9683 35.3846 44.3315C35.4873 44.4147 35.5879 44.5003 35.6866 44.5881C35.6011 44.2834 35.5609 43.9606 35.5732 43.6275C35.5898 43.1737 35.7024 42.7463 35.8908 42.3635C35.7777 42.4319 35.6632 42.4977 35.5469 42.5609C34.1874 41.6618 32.5923 41.0762 30.8555 40.9169C29.1187 40.7577 27.4438 41.0433 25.9433 41.68C24.0505 40.1456 22.8329 37.8403 22.73 35.2923C24.8554 33.9689 27.394 33.6649 29.6961 34.3209C30.0142 35.9453 30.7329 37.5152 31.8662 38.8774C32.9995 40.2395 34.4125 41.2318 35.952 41.8404C35.9634 41.9593 35.9722 42.0785 35.9786 42.1979C36.3517 41.5426 36.954 41.0377 37.6725 40.7883C37.5564 40.7602 37.441 40.73 37.3259 40.6972C37.0078 39.0728 36.2891 37.5029 35.1558 36.1405C34.0225 34.7784 32.6095 33.7861 31.07 33.1777C30.8423 30.7776 31.6156 28.3187 33.3291 26.4647C35.7917 27.0213 37.8223 28.6091 38.9946 30.7157C38.071 32.0893 37.4691 33.7077 37.3073 35.4723C37.1454 37.2368 37.443 38.9375 38.1012 40.4562C38.025 40.5483 37.9472 40.6389 37.8674 40.7276C38.1674 40.6451 38.485 40.6065 38.8125 40.6185C39.2605 40.6351 39.6829 40.745 40.0617 40.9291C39.9994 40.8273 39.9391 40.7241 39.881 40.6196C40.8048 39.246 41.4065 37.6276 41.5684 35.863C41.7304 34.0985 41.4328 32.3976 40.7745 30.8789C42.2995 29.034 44.5634 27.8458 47.0646 27.7318C48.4237 29.8895 48.7268 32.4789 48.0369 34.8158C46.4396 35.1414 44.8977 35.8552 43.557 36.9706ZM45.8685 61.2351C47.2759 59.3492 47.96 57.0625 47.8828 54.7834C50.0949 55.2704 52.451 55.0207 54.5508 53.997C53.8443 58.217 50.145 61.2995 45.8685 61.2351ZM56.1538 53.4866C56.1688 53.3234 56.1798 53.1606 56.1871 52.9986C56.331 52.8911 56.4728 52.7791 56.6126 52.663C60.946 49.0576 61.536 42.6223 57.9309 38.2891C57.8139 38.1483 57.6938 38.0116 57.5709 37.8788C57.5968 37.6997 57.6183 37.519 57.6351 37.3366C58.1499 31.7232 54.0167 26.7554 48.4033 26.2405C48.2223 26.224 48.0421 26.2122 47.8625 26.205C47.7648 26.0757 47.6635 25.9479 47.5586 25.8218C43.9533 21.4886 37.5179 20.8983 33.1847 24.5035C33.0597 24.6076 32.9376 24.7139 32.8188 24.8225C32.6594 24.8003 32.4987 24.7819 32.3368 24.767C26.7234 24.2521 21.7556 28.3852 21.2406 33.9986C21.2256 34.1618 21.2147 34.3246 21.2075 34.4866C21.0635 34.5941 20.9216 34.7061 20.7819 34.8222C16.4487 38.4276 15.8584 44.8629 19.4635 49.1961C19.5806 49.3369 19.7006 49.4736 19.8235 49.6064C19.7976 49.7855 19.7761 49.9662 19.7595 50.1485C19.2445 55.7619 23.3777 60.7298 28.9911 61.2447C29.172 61.2614 29.3524 61.273 29.5318 61.2802C29.6297 61.4095 29.731 61.5375 29.8358 61.6634C33.441 65.9968 39.8765 66.5871 44.2097 62.9817C44.3348 62.8778 44.4568 62.7713 44.5756 62.6627C44.735 62.6849 44.8957 62.7035 45.0576 62.7184C50.671 63.2331 55.6389 59.1 56.1538 53.4866ZM56.0923 51.084C59.2172 48.0947 59.659 43.2374 57.1222 39.7332C56.354 41.9661 54.8416 43.8255 52.9038 45.0456C54.5986 46.6083 55.7516 48.7297 56.0923 51.084ZM48.8694 27.8363C53.1382 28.5284 56.2546 32.2802 56.1502 36.605C54.252 35.2005 51.9521 34.5257 49.6642 34.6184C50.1749 32.3704 49.923 29.9691 48.8694 27.8363ZM31.5259 26.2501C30.1185 28.136 29.4345 30.4226 29.5114 32.7016C27.2996 32.2146 24.9435 32.4645 22.8438 33.4882C23.5502 29.2682 27.2496 26.1857 31.5259 26.2501ZM34.6931 25.266C36.9216 26.0224 38.781 27.5189 40.0091 29.4402C41.5555 27.7855 43.6384 26.6563 45.9485 26.3097C42.9749 23.2331 38.1801 22.7895 34.6931 25.266ZM21.2442 50.8802C23.1424 52.2845 25.4423 52.9594 27.7302 52.8668C27.2196 55.1148 27.4715 57.5161 28.525 59.6489C24.2562 58.9566 21.1397 55.2049 21.2442 50.8802ZM31.4459 61.1755C34.4193 64.2521 39.2143 64.6956 42.7014 62.2191C40.4729 61.4628 38.6135 59.9665 37.3855 58.045C35.8389 59.6997 33.756 60.8289 31.4459 61.1755ZM20.2723 47.752C21.0406 45.519 22.553 43.6598 24.4906 42.4396C22.7958 40.8769 21.6428 38.7555 21.3022 36.4012C18.1773 39.3905 17.7355 44.2478 20.2723 47.752Z" fill="#B07E69"/>
<path d="M38.9036 42.244C38.8945 42.4945 38.6841 42.6899 38.4336 42.6808C38.1833 42.6715 37.9877 42.4611 37.997 42.2107C38.0063 41.9603 38.2167 41.7649 38.4671 41.774C38.7174 41.7833 38.9129 41.9937 38.9036 42.244Z" fill="#B07E69"/>
<path d="M39.3401 45.2977C39.3308 45.5482 39.1204 45.7436 38.87 45.7345C38.6195 45.7252 38.4242 45.5148 38.4333 45.2643C38.4426 45.014 38.653 44.8186 38.9033 44.8277C39.1538 44.837 39.3492 45.0474 39.3401 45.2977Z" fill="#B07E69"/>
<path fill-rule="evenodd" clip-rule="evenodd" d="M6.0017 37.8083C2.93672 40.4764 2.98342 45.0789 6.34309 47.7834L5.37582 48.9852C1.28704 45.6941 1.18058 39.9597 4.98863 36.6448L6.0017 37.8083Z" fill="#B07E69"/>
<path d="M6.44695 41.4877C7.17159 41.4984 7.75041 42.0944 7.73968 42.8191C7.72912 43.5435 7.13312 44.1224 6.40848 44.1118C5.68383 44.1011 5.10501 43.5051 5.11575 42.7804C5.1263 42.0558 5.72248 41.4771 6.44695 41.4877Z" fill="#CA8852"/>
<path fill-rule="evenodd" clip-rule="evenodd" d="M71.395 39.403C74.4598 42.0709 74.4133 46.6734 71.0535 49.3778L72.0207 50.5797C76.1097 47.2885 76.216 41.5542 72.4079 38.2393L71.395 39.403Z" fill="#B07E69"/>
<path d="M70.9479 43.0822C70.2233 43.0929 69.6444 43.6889 69.6552 44.4135C69.6657 45.138 70.2617 45.7168 70.9864 45.7061C71.711 45.6955 72.2898 45.0995 72.2791 44.3749C72.2686 43.6503 71.6724 43.0716 70.9479 43.0822Z" fill="#CA8852"/>
<path fill-rule="evenodd" clip-rule="evenodd" d="M50.0317 75.2159C53.8747 76.5362 57.8373 74.1944 58.4995 69.9326L60.024 70.1693C59.2183 75.356 54.3054 78.3154 49.5304 76.6749L50.0317 75.2159Z" fill="#B07E69"/>
<path d="M52.9951 72.9898C52.6421 72.3569 52.8688 71.5577 53.5016 71.2047C54.1345 70.8515 54.9338 71.0783 55.2868 71.7112C55.64 72.3441 55.4131 73.1433 54.7802 73.4963C54.1474 73.8493 53.3481 73.6226 52.9951 72.9898Z" fill="#CA8852"/>
<path fill-rule="evenodd" clip-rule="evenodd" d="M18.7157 17.7862C19.4936 13.7978 23.503 11.5369 27.525 13.0945L28.082 11.6557C23.1873 9.7604 18.1681 12.5353 17.2014 17.4907L18.7157 17.7862Z" fill="#B07E69"/>
<path d="M22.1256 16.333C22.4973 16.9552 23.3028 17.1584 23.9249 16.7868C24.5472 16.4153 24.7505 15.6098 24.3788 14.9875C24.0074 14.3654 23.2019 14.1621 22.5796 14.5336C21.9574 14.9052 21.7542 15.7107 22.1256 16.333Z" fill="#CA8852"/>
<path fill-rule="evenodd" clip-rule="evenodd" d="M60.0599 18.5835C59.2818 14.5951 55.2726 12.3342 51.2506 13.8918L50.6936 12.4532C55.5881 10.5577 60.6075 13.3326 61.5742 18.2881L60.0599 18.5835Z" fill="#B07E69"/>
<path d="M56.6518 17.1303C56.2803 17.7525 55.4746 17.9557 54.8525 17.5843C54.2304 17.2127 54.0271 16.4071 54.3986 15.785C54.7702 15.1627 55.5757 14.9595 56.1979 15.3311C56.8202 15.7025 57.0232 16.5082 56.6518 17.1303Z" fill="#CA8852"/>
<path fill-rule="evenodd" clip-rule="evenodd" d="M25.9823 74.4188C22.1391 75.7391 18.1765 73.3973 17.5145 69.1355L15.9899 69.3724C16.7957 74.5589 21.7087 77.5183 26.4834 75.8777L25.9823 74.4188Z" fill="#B07E69"/>
<path d="M23.0191 72.1924C23.3721 71.5596 23.1452 70.7603 22.5126 70.4073C21.8797 70.0541 21.0804 70.281 20.7272 70.9138C20.3742 71.5467 20.6011 72.3459 21.234 72.699C21.8666 73.052 22.6659 72.8253 23.0191 72.1924Z" fill="#CA8852"/>
<path fill-rule="evenodd" clip-rule="evenodd" d="M46.7325 13.7164C47.7129 17.0561 47.2104 19.8263 46.0108 22.0427L47.4701 22.8325C48.8728 20.2409 49.4314 17.0194 48.3246 13.2491C47.2249 9.50276 44.4978 5.26689 39.4365 0.564704L38.8287 0L38.264 0.607825C33.6412 5.58377 31.2353 9.94434 30.3747 13.7168C29.5087 17.5125 30.2194 20.665 31.7304 23.1533L33.1488 22.2919C31.8591 20.1683 31.2233 17.4565 31.9924 14.0857C32.7337 10.8366 34.7913 6.93286 38.9153 2.35411C43.4446 6.69436 45.7866 10.4938 46.7325 13.7164Z" fill="#B49A7E"/>
<path fill-rule="evenodd" clip-rule="evenodd" d="M38.9596 7.15256C40.4424 7.06345 41.7167 8.19318 41.8058 9.67611C41.8949 11.1589 40.7652 12.433 39.2824 12.5223C37.7997 12.6114 36.5254 11.4815 36.4363 9.99871C36.3472 8.51596 37.4769 7.24166 38.9596 7.15256ZM38.8857 5.92173C41.0482 5.79183 42.9067 7.43955 43.0366 9.60203C43.1667 11.7645 41.5188 13.623 39.3563 13.7531C37.1938 13.883 35.3353 12.2353 35.2054 10.0728C35.0754 7.91012 36.7233 6.05181 38.8857 5.92173Z" fill="#B49A7E"/>
<path fill-rule="evenodd" clip-rule="evenodd" d="M39.0675 9.30136C39.8685 9.25322 40.557 9.86354 40.6051 10.6646C40.6533 11.4656 40.0428 12.1541 39.2417 12.2023C38.4407 12.2504 37.7522 11.6401 37.7041 10.839C37.6559 10.0378 38.2664 9.34949 39.0675 9.30136ZM39.0082 8.31673C40.3532 8.23586 41.5089 9.26056 41.5898 10.6054C41.6706 11.9503 40.6458 13.1062 39.301 13.1869C37.956 13.2678 36.8003 12.2431 36.7194 10.8981C36.6386 9.55328 37.6634 8.39743 39.0082 8.31673Z" fill="#B07E69"/>
<path fill-rule="evenodd" clip-rule="evenodd" d="M40.0204 19.767L39.8111 12.6199L38.6896 12.6526L38.8987 19.7999L40.0204 19.767Z" fill="#B07E69"/>
<path fill-rule="evenodd" clip-rule="evenodd" d="M36.8588 16.0532L41.8336 15.8703L41.7923 14.749L36.8176 14.9319L36.8588 16.0532Z" fill="#B07E69"/>
<path fill-rule="evenodd" clip-rule="evenodd" d="M36.9118 28.2981L36.5774 28.3325C34.0202 28.595 30.3734 28.0403 27.9572 25.3468C25.5055 22.6139 24.5573 17.9531 26.8359 10.5368L27.0796 9.74365L27.8727 9.98735C35.289 12.2661 38.6132 15.668 39.498 19.2311C40.3699 22.7431 38.7812 26.0721 37.128 28.0407L36.9118 28.2981ZM28.1846 11.829C26.3075 18.4757 27.3701 22.2075 29.1923 24.2389C31.0277 26.2847 33.852 26.8589 36.0705 26.7104C37.4391 24.9581 38.5499 22.2986 37.8875 19.631C37.2298 16.9828 34.7386 14.008 28.1846 11.829Z" fill="#C9BDB0"/>
<path fill-rule="evenodd" clip-rule="evenodd" d="M42.4426 28.1601L42.7783 28.1778C45.3453 28.313 48.9601 27.578 51.2398 24.7678C53.5526 21.9167 54.2683 17.2145 51.6241 9.92049L51.3414 9.14038L50.5613 9.42326C43.2675 12.0674 40.1162 15.6302 39.4095 19.2328C38.7129 22.7836 40.465 26.0298 42.2139 27.9137L42.4426 28.1601ZM50.3412 11.278C52.5461 17.8234 51.6701 21.6034 49.951 23.7226C48.2195 25.8571 45.4272 26.5709 43.2041 26.5326C41.7502 24.8505 40.5086 22.2493 41.0379 19.5522C41.5632 16.8746 43.9035 13.7797 50.3412 11.278Z" fill="#C9BDB0"/>
<path fill-rule="evenodd" clip-rule="evenodd" d="M16.7118 21.7712C20.0942 22.5919 22.242 24.4123 23.5616 26.5594L24.9753 25.6906C23.4322 23.1797 20.9217 21.0854 17.1031 20.1587C13.3088 19.238 8.27677 19.4819 1.6741 21.5139L0.881104 21.7578L1.12516 22.5508C3.12285 29.0424 5.69632 33.3061 8.53299 35.9378C11.3872 38.5857 14.4728 39.5463 17.3831 39.4819L17.3465 37.8229C14.8624 37.8778 12.1961 37.0725 9.66147 34.7212C7.21843 32.4546 4.86647 28.721 2.96307 22.86C8.98639 21.1076 13.4479 20.9793 16.7118 21.7712Z" fill="#B49A7E"/>
<path fill-rule="evenodd" clip-rule="evenodd" d="M7.14126 25.2213C7.80543 23.8926 9.42112 23.354 10.7498 24.0182C12.0783 24.6824 12.6171 26.2981 11.9529 27.6268C11.2886 28.9553 9.67304 29.494 8.34435 28.8299C7.01565 28.1655 6.47709 26.55 7.14126 25.2213ZM6.03837 24.67C7.00707 22.7323 9.36332 21.9466 11.3011 22.9153C13.2388 23.884 14.0245 26.2403 13.0558 28.178C12.0871 30.1158 9.73083 30.9014 7.79308 29.9327C5.85533 28.964 5.06967 26.6078 6.03837 24.67Z" fill="#B49A7E"/>
<path fill-rule="evenodd" clip-rule="evenodd" d="M9.05481 26.2019C9.41373 25.4841 10.2865 25.193 11.0044 25.5519C11.7222 25.9107 12.0131 26.7836 11.6544 27.5013C11.2955 28.2191 10.4227 28.5103 9.70484 28.1513C8.987 27.7926 8.69607 26.9198 9.05481 26.2019ZM8.17253 25.7607C8.77497 24.5557 10.2404 24.0672 11.4454 24.6696C12.6505 25.2721 13.1391 26.7373 12.5367 27.9425C11.9342 29.1476 10.4688 29.6362 9.26379 29.0336C8.05873 28.4312 7.57009 26.966 8.17253 25.7607Z" fill="#B07E69"/>
<path fill-rule="evenodd" clip-rule="evenodd" d="M18.5951 30.6092L12.3009 27.2168L11.7686 28.2045L18.0628 31.5969L18.5951 30.6092Z" fill="#B07E69"/>
<path fill-rule="evenodd" clip-rule="evenodd" d="M13.798 31.4912L16.1269 27.0916L15.1353 26.5667L12.8064 30.9662L13.798 31.4912Z" fill="#B07E69"/>
<path fill-rule="evenodd" clip-rule="evenodd" d="M24.429 37.5673L24.2916 37.8741C23.2404 40.22 20.9365 43.1009 17.3958 43.8466C13.8032 44.6033 9.29266 43.0942 4.00938 37.4127L3.44434 36.805L4.05196 36.24C9.73353 30.9567 14.3417 29.7789 17.8699 30.7943C21.3472 31.795 23.4359 34.8354 24.3141 37.2515L24.429 37.5673ZM5.80274 36.8908C10.6205 41.8398 14.3836 42.7854 17.0537 42.2229C19.7433 41.6564 21.6528 39.4977 22.6333 37.5021C21.8 35.4407 20.0523 33.1489 17.411 32.3888C14.7887 31.6341 10.9669 32.3042 5.80274 36.8908Z" fill="#C9BDB0"/>
<path fill-rule="evenodd" clip-rule="evenodd" d="M27.0753 32.7085L27.2585 32.4267C28.6592 30.2712 29.83 26.773 28.5361 23.3939C27.2233 19.9653 23.509 16.9943 15.87 15.6373L15.0532 15.4922L14.9081 16.309C13.5509 23.9478 15.0609 28.4581 17.8274 30.8716C20.5542 33.2503 24.2415 33.356 26.7475 32.7835L27.0753 32.7085ZM16.4043 17.4271C23.1751 18.7901 26.0107 21.4389 26.9864 23.9872C27.9692 26.554 27.1911 29.3291 26.0465 31.2352C23.8627 31.6534 20.9894 31.4279 18.9183 29.6211C16.8619 27.8274 15.3518 24.253 16.4043 17.4271Z" fill="#C9BDB0"/>
<path fill-rule="evenodd" clip-rule="evenodd" d="M8.67689 51.7973C11.079 49.2785 13.7292 48.3285 16.2484 48.2594L16.2028 46.6006C13.257 46.6815 10.1879 47.8085 7.47613 50.6522C4.78153 53.4777 2.47662 57.9576 0.935186 64.6916L0.75 65.5004L1.55874 65.6856C8.17948 67.2012 13.1588 67.1044 16.8561 65.9636C20.5763 64.8156 22.951 62.624 24.3505 60.0711L22.8953 59.2735C21.701 61.4522 19.6704 63.3587 16.3669 64.378C13.1824 65.3606 8.7728 65.5306 2.74537 64.2485C4.23957 58.1559 6.35911 54.228 8.67689 51.7973Z" fill="#B49A7E"/>
<path fill-rule="evenodd" clip-rule="evenodd" d="M6.87862 61.8119C6.06004 60.5723 6.40143 58.9038 7.64102 58.0852C8.88061 57.2666 10.5489 57.608 11.3675 58.8476C12.1861 60.087 11.8449 61.7555 10.6053 62.5741C9.36567 63.3926 7.6972 63.0513 6.87862 61.8119ZM5.8498 62.4912C4.65584 60.6834 5.15361 58.2502 6.96146 57.0562C8.76932 55.8624 11.2027 56.3602 12.3965 58.168C13.5903 59.9759 13.0925 62.4093 11.2846 63.6031C9.47696 64.7968 7.04359 64.2991 5.8498 62.4912Z" fill="#B49A7E"/>
<path fill-rule="evenodd" clip-rule="evenodd" d="M8.68466 60.6438C8.24236 59.9741 8.42683 59.0727 9.09636 58.6306C9.76608 58.1883 10.6675 58.3726 11.1096 59.0423C11.5519 59.712 11.3676 60.6134 10.6979 61.0555C10.0282 61.4978 9.12678 61.3136 8.68466 60.6438ZM7.86143 61.1874C7.11907 60.0631 7.42861 58.5497 8.55279 57.8074C9.67715 57.065 11.1905 57.3745 11.9329 58.4987C12.6752 59.6231 12.3657 61.1364 11.2415 61.8788C10.1171 62.6211 8.60396 62.3116 7.86143 61.1874Z" fill="#B07E69"/>
<path fill-rule="evenodd" clip-rule="evenodd" d="M17.273 54.5854L11.188 58.3402L11.7772 59.2951L17.8622 55.5404L17.273 54.5854Z" fill="#B07E69"/>
<path fill-rule="evenodd" clip-rule="evenodd" d="M15.6376 59.1801L12.9918 54.9634L12.0414 55.5597L14.6871 59.7764L15.6376 59.1801Z" fill="#B07E69"/>
<path fill-rule="evenodd" clip-rule="evenodd" d="M26.2149 53.0117L26.4119 53.2842C27.9179 55.3674 29.261 58.8031 28.1364 62.2424C26.9954 65.732 23.4332 68.8838 15.8711 70.6184L15.0624 70.8038L14.877 69.9952C13.1424 62.4332 14.4263 57.8534 17.0697 55.3055C19.6751 52.7945 23.3525 52.5059 25.8839 52.9532L26.2149 53.0117ZM16.3159 68.8041C23.0108 67.1067 25.7111 64.3205 26.5592 61.7268C27.4134 59.1143 26.4985 56.3812 25.2606 54.5344C23.0589 54.2252 20.2002 54.5929 18.2213 56.5004C16.2565 58.3939 14.9259 62.0388 16.3159 68.8041Z" fill="#C9BDB0"/>
<path fill-rule="evenodd" clip-rule="evenodd" d="M23.331 48.2917L23.1785 47.9921C22.0121 45.7012 19.568 42.9382 15.9945 42.3693C12.369 41.7919 7.9388 43.5231 2.94412 49.46L2.41003 50.0949L3.04486 50.629C8.98175 55.6236 13.6427 56.5712 17.1162 55.3821C20.5396 54.2099 22.4748 51.0695 23.232 48.6128L23.331 48.2917ZM4.76128 49.8921C9.32726 44.7101 13.0389 43.5788 15.7337 44.0079C18.4479 44.4401 20.4623 46.5015 21.5406 48.4459C20.8108 50.5461 19.179 52.9219 16.5787 53.8122C13.997 54.6961 10.1466 54.2168 4.76128 49.8921Z" fill="#C9BDB0"/>
<path fill-rule="evenodd" clip-rule="evenodd" d="M30.6621 73.7692C29.6818 70.4296 30.1842 67.6594 31.3839 65.4431L29.9246 64.6532C28.5218 67.2449 27.9632 70.4662 29.07 74.2367C30.1697 77.9829 32.8971 82.2189 37.9581 86.921L38.5659 87.4857L39.1306 86.8779C43.7535 81.902 46.1595 77.5415 47.0201 73.769C47.8861 69.9733 47.1752 66.8208 45.6642 64.3325L44.2459 65.1939C45.5356 67.3175 46.1713 70.0293 45.4023 73.3999C44.661 76.6491 42.6035 80.5527 38.4793 85.1316C33.95 80.7914 31.6083 76.9918 30.6621 73.7692Z" fill="#B49A7E"/>
<path fill-rule="evenodd" clip-rule="evenodd" d="M38.4361 80.3334C36.9533 80.4225 35.679 79.2928 35.5899 77.81C35.5008 76.3273 36.6306 75.053 38.1135 74.9639C39.5962 74.8747 40.8704 76.0045 40.9596 77.4872C41.0487 78.97 39.9188 80.2443 38.4361 80.3334ZM38.5102 81.5642C36.3475 81.6943 34.4892 80.0466 34.3591 77.8839C34.2292 75.7214 35.8769 73.8629 38.0394 73.733C40.2019 73.603 42.0604 75.2508 42.1905 77.4133C42.3204 79.5758 40.6726 81.4343 38.5102 81.5642Z" fill="#B49A7E"/>
<path fill-rule="evenodd" clip-rule="evenodd" d="M38.3284 78.1844C37.5274 78.2326 36.8389 77.6223 36.7907 76.8212C36.7426 76.02 37.3531 75.3317 38.1541 75.2835C38.9552 75.2354 39.6437 75.8457 39.6918 76.6468C39.7399 77.4478 39.1295 78.1363 38.3284 78.1844ZM38.3876 79.1691C37.0427 79.2499 35.887 78.2252 35.8061 76.8803C35.7252 75.5355 36.7501 74.3796 38.0949 74.2989C39.4399 74.218 40.5956 75.2427 40.6764 76.5875C40.7571 77.9325 39.7324 79.0882 38.3876 79.1691Z" fill="#B07E69"/>
<path fill-rule="evenodd" clip-rule="evenodd" d="M37.3754 67.7188L37.5845 74.8661L38.706 74.8332L38.4969 67.686L37.3754 67.7188Z" fill="#B07E69"/>
<path fill-rule="evenodd" clip-rule="evenodd" d="M40.5377 71.4319L35.5629 71.6147L35.6042 72.7361L40.5788 72.5532L40.5377 71.4319Z" fill="#B07E69"/>
<path fill-rule="evenodd" clip-rule="evenodd" d="M40.483 59.188L40.8174 59.1536C43.3746 58.891 47.0214 59.4457 49.4376 62.1394C51.8892 64.8723 52.8375 69.5331 50.5588 76.9493L50.3152 77.7423L49.5221 77.4986C42.1058 75.2198 38.7816 71.8181 37.8968 68.2548C37.0249 64.7431 38.6136 61.414 40.2668 59.4455L40.483 59.188ZM49.2102 75.6571C51.0873 69.0104 50.0247 65.2786 48.2025 63.2473C46.3671 61.2013 43.5428 60.6271 41.3243 60.7758C39.9557 62.528 38.8449 65.1875 39.5073 67.8549C40.1648 70.5034 42.6562 73.4782 49.2102 75.6571Z" fill="#C9BDB0"/>
<path fill-rule="evenodd" clip-rule="evenodd" d="M34.9533 59.3254L34.6176 59.3077C32.0506 59.1725 28.4358 59.9077 26.1561 62.7178C23.8433 65.569 23.1276 70.2711 25.7718 77.5652L26.0545 78.3451L26.8346 78.0624C34.1285 75.4183 37.2797 71.8555 37.9864 68.2529C38.683 64.7021 36.931 61.4559 35.182 59.5718L34.9533 59.3254ZM27.0547 76.2075C24.8498 69.6623 25.7258 65.8823 27.4449 63.7631C29.1764 61.6286 31.9687 60.9148 34.1918 60.9531C35.6457 62.6352 36.8873 65.2362 36.358 67.9333C35.8327 70.6111 33.4924 73.706 27.0547 76.2075Z" fill="#C9BDB0"/>
<path fill-rule="evenodd" clip-rule="evenodd" d="M68.7185 35.6881C66.3164 38.207 63.6662 39.1569 61.1469 39.2261L61.1926 40.885C64.1384 40.8039 67.2075 39.677 69.9194 36.8332C72.6138 34.0078 74.9188 29.5279 76.4604 22.7937L76.6454 21.985L75.8366 21.7998C69.2161 20.2843 64.2368 20.3811 60.5393 21.5219C56.8191 22.6699 54.4444 24.8615 53.045 27.4143L54.5001 28.2119C55.6944 26.0331 57.725 24.1269 61.0287 23.1075C64.2132 22.1249 68.6226 21.9549 74.65 23.2371C73.156 29.3297 71.0363 33.2576 68.7185 35.6881Z" fill="#B49A7E"/>
<path fill-rule="evenodd" clip-rule="evenodd" d="M70.5162 25.6743C71.3348 26.9139 70.9934 28.5824 69.754 29.401C68.5144 30.2196 66.8459 29.8782 66.0273 28.6386C65.2088 27.3992 65.5502 25.7307 66.7896 24.9121C68.0292 24.0935 69.6976 24.4347 70.5162 25.6743ZM71.5452 24.995C72.739 26.8028 72.2412 29.236 70.4334 30.43C68.6255 31.6238 66.1923 31.126 64.9984 29.3181C63.8046 27.5103 64.3023 25.0769 66.1102 23.8831C67.918 22.6893 70.3514 23.1871 71.5452 24.995Z" fill="#B49A7E"/>
<path fill-rule="evenodd" clip-rule="evenodd" d="M68.7107 26.8414C69.1529 27.5111 68.9686 28.4125 68.2989 28.8546C67.6291 29.2969 66.7277 29.1125 66.2856 28.4429C65.8433 27.7732 66.0278 26.8718 66.6975 26.4297C67.367 25.9874 68.2684 26.1716 68.7107 26.8414ZM69.5338 26.2978C70.2763 27.4222 69.9668 28.9353 68.8424 29.6779C67.7181 30.4202 66.2049 30.1107 65.4624 28.9865C64.72 27.8621 65.0296 26.3488 66.1539 25.6064C67.2781 24.8641 68.7914 25.1736 69.5338 26.2978Z" fill="#B07E69"/>
<path fill-rule="evenodd" clip-rule="evenodd" d="M60.1233 32.9011L66.2083 29.1463L65.6191 28.1914L59.5341 31.9461L60.1233 32.9011Z" fill="#B07E69"/>
<path fill-rule="evenodd" clip-rule="evenodd" d="M61.7584 28.3053L64.4042 32.5221L65.3546 31.9257L62.7089 27.709L61.7584 28.3053Z" fill="#B07E69"/>
<path fill-rule="evenodd" clip-rule="evenodd" d="M51.1807 34.474L50.9837 34.2015C49.4777 32.1182 48.1347 28.6825 49.2593 25.2432C50.4003 21.7537 53.9625 18.6019 61.5245 16.8673L62.3333 16.6819L62.5187 17.4904C64.2533 25.0525 62.9694 29.6323 60.3259 32.1802C57.7206 34.6912 54.0432 34.9798 51.5118 34.5325L51.1807 34.474ZM61.0797 18.6815C54.3849 20.379 51.6846 23.1652 50.8365 25.7589C49.9823 28.3714 50.8971 31.1045 52.1351 32.9513C54.337 33.2605 57.1955 32.8928 59.1744 30.9853C61.1391 29.0917 62.4698 25.4469 61.0797 18.6815Z" fill="#C9BDB0"/>
<path fill-rule="evenodd" clip-rule="evenodd" d="M54.0646 39.1942L54.217 39.4937C55.3834 41.7845 57.8274 44.5475 61.4008 45.1166C65.0266 45.694 69.4567 43.9627 74.4514 38.0259L74.9855 37.3908L74.3505 36.8568C68.4136 31.8621 63.7526 30.9145 60.2793 32.1038C56.856 33.2759 54.9207 36.4162 54.1635 38.8729L54.0646 39.1942ZM72.6341 37.5936C68.0683 42.7758 64.3567 43.9069 61.6619 43.4779C58.9474 43.0456 56.9333 40.9842 55.8547 39.0398C56.5845 36.9396 58.2165 34.564 60.8168 33.6737C63.3984 32.7898 67.2488 33.2691 72.6341 37.5936Z" fill="#C9BDB0"/>
<path fill-rule="evenodd" clip-rule="evenodd" d="M60.6834 65.7147C57.301 64.894 55.1531 63.0738 53.8335 60.9267L52.4198 61.7956C53.9628 64.3062 56.4733 66.4007 60.2921 67.3274C64.0862 68.2481 69.1185 68.0042 75.7212 65.9722L76.5141 65.7281L76.2701 64.9352C74.2722 58.4438 71.6987 54.18 68.8621 51.5484C66.0079 48.9005 62.9225 47.9398 60.0119 48.0042L60.0486 49.6632C62.5328 49.6081 65.199 50.4135 67.7336 52.7649C70.1768 55.0313 72.5288 58.7651 74.432 64.6261C68.4087 66.3785 63.9472 66.5068 60.6834 65.7147Z" fill="#B49A7E"/>
<path fill-rule="evenodd" clip-rule="evenodd" d="M70.2538 62.2646C69.5895 63.5932 67.974 64.132 66.6453 63.4676C65.3166 62.8035 64.778 61.188 65.4422 59.8593C66.1064 58.5306 67.722 57.992 69.0506 58.6562C70.3793 59.3204 70.918 60.9359 70.2538 62.2646ZM71.3567 62.816C70.388 64.7538 68.0318 65.5394 66.094 64.5705C64.1561 63.6018 63.3706 61.2458 64.3393 59.308C65.308 57.3701 67.6643 56.5846 69.602 57.5533C71.5398 58.522 72.3254 60.8782 71.3567 62.816Z" fill="#B49A7E"/>
<path fill-rule="evenodd" clip-rule="evenodd" d="M68.3408 61.2839C67.982 62.0018 67.1092 62.2927 66.3914 61.9339C65.6736 61.575 65.3824 60.7022 65.7414 59.9844C66.1003 59.2665 66.9731 58.9756 67.6909 59.3343C68.4086 59.6933 68.6997 60.5661 68.3408 61.2839ZM69.2232 61.725C68.6208 62.93 67.1554 63.4187 65.9504 62.8162C64.7451 62.2138 64.2566 60.7484 64.8591 59.5433C65.4615 58.3383 66.9267 57.8496 68.132 58.4521C69.337 59.0545 69.8257 60.5199 69.2232 61.725Z" fill="#B07E69"/>
<path fill-rule="evenodd" clip-rule="evenodd" d="M58.7999 56.8763L65.0943 60.2687L65.6266 59.2811L59.3324 55.8887L58.7999 56.8763Z" fill="#B07E69"/>
<path fill-rule="evenodd" clip-rule="evenodd" d="M63.5968 55.9951L61.2677 60.3949L62.2595 60.9198L64.5884 56.5201L63.5968 55.9951Z" fill="#B07E69"/>
<path fill-rule="evenodd" clip-rule="evenodd" d="M52.9658 49.9191L53.1032 49.6124C54.1544 47.2665 56.4582 44.3855 59.9992 43.6397C63.5916 42.883 68.1021 44.3923 73.3856 50.0738L73.9504 50.6815L73.343 51.2463C67.6613 56.5296 63.0531 57.7075 59.525 56.6923C56.0476 55.6915 53.9588 52.6511 53.0807 50.235L52.9658 49.9191ZM71.592 50.5958C66.7745 45.6467 63.0114 44.7011 60.3411 45.2634C57.6515 45.8299 55.7422 47.9888 54.7615 49.9844C55.5948 52.0458 57.3425 54.3374 59.9838 55.0975C62.6063 55.8522 66.4281 55.1821 71.592 50.5958Z" fill="#C9BDB0"/>
<path fill-rule="evenodd" clip-rule="evenodd" d="M50.3202 54.7766L50.1372 55.0586C48.7364 57.2141 47.5657 60.7121 48.8595 64.0912C50.1724 67.52 53.8867 70.4908 61.5256 71.848L62.3425 71.9931L62.4876 71.1761C63.8446 63.5373 62.3348 59.027 59.5681 56.6136C56.8413 54.2348 53.154 54.1293 50.648 54.7018L50.3202 54.7766ZM60.9913 70.0582C54.2204 68.695 51.385 66.0463 50.4092 63.4979C49.4263 60.9311 50.2045 58.1559 51.349 56.2499C53.5328 55.8319 56.4062 56.0572 58.4774 57.8639C60.5336 59.6578 62.0437 63.232 60.9913 70.0582Z" fill="#C9BDB0"/>
<path fill-rule="evenodd" clip-rule="evenodd" d="M38.4361 80.3334C36.9532 80.4225 35.6791 79.2927 35.59 77.81C35.5008 76.3272 36.6306 75.0529 38.1133 74.9638C39.5961 74.8747 40.8704 76.0045 40.9595 77.4872C41.0486 78.9701 39.9189 80.2443 38.4361 80.3334ZM38.51 81.5642C36.3475 81.6943 34.489 80.0465 34.3591 77.8839C34.2291 75.7214 35.8768 73.8629 38.0394 73.733C40.2019 73.6031 42.0604 75.2508 42.1903 77.4133C42.3202 79.5758 40.6725 81.4343 38.51 81.5642Z" fill="#B49A7E"/>
<path fill-rule="evenodd" clip-rule="evenodd" d="M38.3284 78.1844C37.5272 78.2326 36.8389 77.6223 36.7907 76.8212C36.7426 76.0202 37.3529 75.3317 38.154 75.2835C38.955 75.2354 39.6435 75.8457 39.6916 76.6468C39.7398 77.448 39.1295 78.1363 38.3284 78.1844ZM38.3875 79.1691C37.0427 79.2499 35.8868 78.2252 35.8061 76.8803C35.7252 75.5355 36.7499 74.3796 38.0947 74.2989C39.4397 74.218 40.5954 75.2427 40.6763 76.5877C40.7571 77.9325 39.7324 79.0884 38.3875 79.1691Z" fill="#B07E69"/>
<path fill-rule="evenodd" clip-rule="evenodd" d="M37.3744 67.7188L37.5836 74.8661L38.7052 74.8332L38.4959 67.686L37.3744 67.7188Z" fill="#B07E69"/>
<path fill-rule="evenodd" clip-rule="evenodd" d="M40.5365 71.4324L35.5619 71.6152L35.6032 72.7366L40.5779 72.5537L40.5365 71.4324Z" fill="#B07E69"/>
<path fill-rule="evenodd" clip-rule="evenodd" d="M40.4829 59.1879L40.8173 59.1536C43.3745 58.8911 47.0215 59.4458 49.4377 62.1393C51.8891 64.8722 52.8376 69.533 50.5588 76.9494L50.3151 77.7424L49.522 77.4987C42.1057 75.2199 38.7817 71.818 37.8969 68.2549C37.0248 64.7432 38.6136 61.4139 40.2667 59.4454L40.4829 59.1879ZM49.2101 75.657C51.0874 69.0104 50.0246 65.2787 48.2024 63.2474C46.3672 61.2014 43.5428 60.6272 41.3243 60.7757C39.9558 62.5281 38.8448 65.1875 39.5072 67.855C40.1649 70.5033 42.6561 73.4783 49.2101 75.657Z" fill="#C9BDB0"/>
<path fill-rule="evenodd" clip-rule="evenodd" d="M34.9533 59.3259L34.6176 59.3082C32.0506 59.1729 28.4358 59.908 26.1561 62.7182C23.8433 65.5693 23.1276 70.2715 25.7718 77.5655L26.0545 78.3456L26.8346 78.0627C34.1285 75.4186 37.2797 71.8558 37.9864 68.2532C38.683 64.7024 36.931 61.4562 35.182 59.5723L34.9533 59.3259ZM27.0547 76.2078C24.8498 69.6626 25.7258 65.8826 27.4449 63.7634C29.1764 61.6289 31.9687 60.9151 34.1918 60.9534C35.6457 62.6355 36.8873 65.2367 36.358 67.9338C35.8327 70.6114 33.4924 73.7063 27.0547 76.2078Z" fill="#C9BDB0"/>
<path fill-rule="evenodd" clip-rule="evenodd" d="M31.2614 63.9118C42.4003 68.019 54.7597 62.3187 58.867 51.1797C62.9742 40.0408 57.274 27.6814 46.135 23.5742C34.9961 19.4669 22.6367 25.1671 18.5295 36.3061C14.4223 47.445 20.1224 59.8044 31.2614 63.9118ZM30.7337 65.343C42.663 69.7417 55.8995 63.6368 60.2982 51.7075C64.6968 39.7781 58.5921 26.5416 46.6627 22.1429C34.7334 17.7443 21.4969 23.849 17.0983 35.7784C12.6996 47.7077 18.8043 60.9443 30.7337 65.343Z" fill="#B07E69"/>
<path d="M38.0046 40.4456C37.3524 40.5828 36.7555 40.9101 36.2894 41.3866C35.8233 41.8629 35.509 42.4667 35.3861 43.1216C35.2631 43.7766 35.3372 44.4533 35.599 45.0663C35.8607 45.6792 36.2982 46.2007 36.8563 46.565C37.4143 46.9291 38.068 47.1197 38.7345 47.1125C39.4008 47.1052 40.0501 46.9005 40.6001 46.5244C41.1501 46.1481 41.5763 45.6172 41.8247 44.9987C42.073 44.3803 42.1324 43.7022 41.9954 43.05C41.8098 42.1763 41.2859 41.4116 40.5378 40.9235C39.7899 40.4354 38.879 40.2636 38.0046 40.4456ZM35.9076 44.3297C35.753 43.5897 35.8981 42.8187 36.3113 42.1856C36.7244 41.5526 37.3718 41.1092 38.1113 40.953C38.4476 40.8822 38.7983 40.948 39.0862 41.1359C39.3741 41.3238 39.5754 41.6183 39.6463 41.9547C39.7169 42.291 39.6511 42.6417 39.4632 42.9294C39.2753 43.2173 38.9808 43.4188 38.6444 43.4895C38.1735 43.5884 37.7613 43.8704 37.4983 44.2735C37.2354 44.6765 37.1433 45.1674 37.2422 45.6384C37.2966 45.9017 37.4099 46.1495 37.5734 46.3632C37.1531 46.1826 36.7824 45.9035 36.4925 45.5496C36.2027 45.1957 36.0021 44.7774 35.9076 44.3297ZM39.2843 46.5333C38.9481 46.604 38.5974 46.5382 38.3095 46.3503C38.0216 46.1624 37.8201 45.8679 37.7495 45.5317C37.6788 45.1953 37.7446 44.8447 37.9325 44.5568C38.1204 44.2689 38.4147 44.0674 38.7511 43.9967C39.222 43.8978 39.6344 43.6158 39.8973 43.2129C40.1603 42.8097 40.2524 42.3189 40.1535 41.848C40.0989 41.5845 39.9859 41.3367 39.8223 41.123C40.3791 41.3619 40.8454 41.7722 41.1533 42.2939C41.4613 42.8158 41.5951 43.4222 41.5352 44.0252C41.4752 44.6282 41.2247 45.1964 40.82 45.6473C40.4153 46.0984 39.8774 46.4086 39.2843 46.5333Z" fill="#B07E69"/>
<path fill-rule="evenodd" clip-rule="evenodd" d="M38.0915 40.2187H38.0911C37.3942 40.3386 36.7485 40.6624 36.2357 41.1493C35.7229 41.636 35.3659 42.264 35.2099 42.9537C35.0541 43.6435 35.1061 44.3638 35.3597 45.0241C35.6132 45.6841 36.0568 46.2542 36.6341 46.6621C37.2117 47.0703 37.8973 47.2978 38.6041 47.3163C39.311 47.3345 40.0076 47.1429 40.6055 46.7655C41.2035 46.3882 41.6761 45.8418 41.9636 45.1958C42.2511 44.5497 42.3406 43.833 42.2207 43.1361L42.2205 43.1357C42.0582 42.2022 41.5324 41.3711 40.7585 40.8244C39.9847 40.2776 39.0256 40.0598 38.0915 40.2187ZM36.6737 46.4365C36.6998 46.456 36.7261 46.4753 36.7529 46.4941C37.2972 46.8788 37.9433 47.0932 38.6095 47.1105C39.2758 47.1279 39.9321 46.9473 40.4957 46.5916C41.0593 46.2359 41.5046 45.721 41.7755 45.1121L41.7757 45.1119L41.7755 45.1121C41.5046 45.721 41.0593 46.2359 40.4957 46.5916C39.9321 46.9473 39.2758 47.1279 38.6095 47.1105C37.9433 47.0932 37.2972 46.8788 36.7529 46.4941C36.7261 46.4753 36.6998 46.456 36.6737 46.4365ZM36.09 44.1906C35.9719 43.4993 36.133 42.7893 36.5377 42.2166C36.9422 41.6436 37.5577 41.2547 38.2488 41.135C38.5338 41.0859 38.8265 41.1521 39.0627 41.3191C39.2989 41.4858 39.459 41.7397 39.508 42.0248C39.5571 42.3096 39.4909 42.6025 39.3239 42.8387C39.1572 43.0747 38.9033 43.235 38.6184 43.284C38.0904 43.3747 37.62 43.6718 37.3108 44.1092C37.0018 44.5467 36.8793 45.089 36.9698 45.6168C36.9787 45.6696 36.9898 45.7219 37.0027 45.7734C36.8501 45.646 36.7118 45.5013 36.5907 45.3418C36.3339 45.0037 36.1623 44.609 36.09 44.1906ZM36.3697 42.0978C36.8057 41.4805 37.469 41.0612 38.2139 40.9322C38.5526 40.8741 38.9006 40.9526 39.1813 41.1511C39.204 41.167 39.2262 41.1838 39.2477 41.2012C39.2262 41.1838 39.204 41.167 39.1813 41.1511C38.9006 40.9526 38.5526 40.8741 38.2139 40.9322C37.469 41.0612 36.8057 41.4805 36.3697 42.0978C36.1734 42.3756 36.0303 42.6832 35.9439 43.0054C36.0303 42.6832 36.1734 42.3756 36.3697 42.0978ZM40.8557 45.2622C41.2597 44.6889 41.4198 43.9786 41.3008 43.2874C41.228 42.8693 41.0559 42.4748 40.7988 42.1371C40.6773 41.9777 40.5388 41.8331 40.386 41.7059C40.3991 41.7574 40.4102 41.8097 40.4191 41.8625C40.5104 42.3901 40.3885 42.9326 40.0801 43.3704C39.7714 43.8085 39.3015 44.106 38.7737 44.1974C38.4887 44.2468 38.2352 44.4073 38.0686 44.6439C37.902 44.8802 37.8362 45.1729 37.8855 45.458C37.9349 45.7428 38.0956 45.9965 38.332 46.1629C38.5683 46.3295 38.861 46.3953 39.1461 46.346C39.8369 46.2254 40.4519 45.8357 40.8557 45.2622Z" fill="#B07E69"/>
</svg>
