<svg width="524px" height="168px" viewBox="0 0 524 168" fill="none" xmlns="http://www.w3.org/2000/svg">
<g clip-path="url(#clip0_76_1470)">
<path fill-rule="evenodd" clip-rule="evenodd" d="M284.07 187.981C277.997 193.033 273.546 199.313 270.781 206.157C270.185 206.219 269.588 206.268 268.99 206.303C272.011 208.001 274.333 210.773 275.463 214.081C275.605 213.501 275.761 212.923 275.931 212.348C283.166 210.873 290.149 207.64 296.222 202.588C302.297 197.536 306.746 191.256 309.511 184.411C320.41 183.271 331.612 186.697 340.081 194.412C337.475 205.567 330.189 214.738 320.561 219.977C314.405 215.903 307.179 213.252 299.311 212.53C291.445 211.808 283.858 213.103 277.061 215.986C276.597 215.609 276.141 215.222 275.694 214.824C276.08 216.205 276.264 217.666 276.208 219.175C276.132 221.23 275.621 223.168 274.769 224.901C275.281 224.591 275.801 224.293 276.327 224.006C282.484 228.078 289.709 230.731 297.575 231.453C305.444 232.175 313.031 230.88 319.825 227.996C328.4 234.947 333.915 245.387 334.381 256.929C324.754 262.923 313.254 264.302 302.828 261.329C301.386 253.971 298.13 246.862 292.998 240.691C287.864 234.521 281.463 230.028 274.492 227.272C274.44 226.732 274.401 226.191 274.371 225.651C272.682 228.618 269.952 230.906 266.698 232.036C267.224 232.164 267.748 232.301 268.268 232.448C269.71 239.806 272.966 246.918 278.097 253.086C283.231 259.256 289.632 263.752 296.604 266.507C297.636 277.378 294.133 288.517 286.371 296.915C275.218 294.394 266.02 287.201 260.711 277.66C264.895 271.436 267.62 264.108 268.354 256.114C269.085 248.122 267.739 240.419 264.757 233.54C265.102 233.123 265.454 232.713 265.817 232.31C264.457 232.683 263.02 232.86 261.536 232.804C259.507 232.73 257.592 232.231 255.876 231.397C256.16 231.858 256.432 232.327 256.696 232.8C252.512 239.021 249.784 246.352 249.053 254.344C248.319 262.338 249.666 270.041 252.649 276.92C245.741 285.277 235.487 290.658 224.157 291.175C218.001 281.401 216.628 269.673 219.753 259.088C226.987 257.614 233.973 254.381 240.045 249.326C246.118 244.274 250.567 237.996 253.334 231.15C253.931 231.087 254.527 231.039 255.123 231.004C252.104 229.306 249.78 226.534 248.652 223.226C248.508 223.808 248.352 224.386 248.182 224.959C240.949 226.433 233.963 229.667 227.891 234.719C221.818 239.771 217.369 246.051 214.602 252.897C203.703 254.036 192.502 250.61 184.032 242.895C186.639 231.74 193.927 222.569 203.553 217.333C209.711 221.404 216.936 224.058 224.802 224.777C232.669 225.499 240.257 224.207 247.052 221.321C247.518 221.698 247.974 222.087 248.419 222.483C248.033 221.104 247.851 219.641 247.907 218.132C247.981 216.077 248.492 214.142 249.344 212.409C248.834 212.716 248.315 213.014 247.788 213.301C241.629 209.229 234.406 206.576 226.538 205.856C218.671 205.134 211.084 206.427 204.288 209.313C195.715 202.362 190.2 191.92 189.733 180.378C199.361 174.384 210.859 173.007 221.287 175.978C222.728 183.336 225.983 190.447 231.117 196.618C236.251 202.786 242.65 207.282 249.624 210.037C249.675 210.578 249.714 211.116 249.742 211.656C251.434 208.689 254.161 206.401 257.415 205.271C256.891 205.146 256.367 205.008 255.845 204.859C254.406 197.501 251.149 190.392 246.016 184.221C240.884 178.051 234.483 173.556 227.51 170.8C226.478 159.929 229.981 148.791 237.742 140.393C248.897 142.914 258.093 150.106 263.404 159.648C259.221 165.87 256.495 173.201 255.761 181.193C255.028 189.185 256.376 196.89 259.358 203.769C259.013 204.186 258.659 204.596 258.298 204.999C259.656 204.624 261.096 204.449 262.579 204.503C264.608 204.577 266.521 205.076 268.237 205.91C267.956 205.448 267.683 204.98 267.42 204.507C271.603 198.286 274.329 190.955 275.062 182.963C275.796 174.971 274.447 167.267 271.466 160.388C278.375 152.031 288.628 146.649 299.958 146.133C306.112 155.906 307.487 167.635 304.361 178.22C297.126 179.694 290.143 182.928 284.07 187.981ZM294.54 297.886C300.916 289.344 304.014 278.986 303.664 268.664C313.683 270.87 324.354 269.738 333.867 265.1C330.666 284.215 313.909 298.177 294.54 297.886ZM341.127 262.79C341.195 262.049 341.244 261.313 341.276 260.579C341.928 260.092 342.571 259.585 343.205 259.058C362.832 242.729 365.506 213.58 349.177 193.951C348.646 193.315 348.101 192.695 347.547 192.094C347.663 191.281 347.761 190.464 347.836 189.637C350.167 164.212 331.446 141.71 306.022 139.378C305.202 139.303 304.384 139.25 303.571 139.218C303.129 138.631 302.67 138.052 302.195 137.482C285.866 117.854 256.716 115.18 237.087 131.51C236.521 131.982 235.969 132.463 235.431 132.955C234.709 132.855 233.982 132.771 233.248 132.704C207.822 130.371 185.32 149.093 182.988 174.519C182.92 175.258 182.87 175.995 182.837 176.729C182.185 177.216 181.542 177.723 180.91 178.249C161.282 194.58 158.608 223.729 174.938 243.356C175.468 243.994 176.012 244.612 176.569 245.215C176.451 246.026 176.354 246.843 176.278 247.67C173.946 273.095 192.668 295.599 218.093 297.93C218.913 298.005 219.73 298.058 220.543 298.091C220.986 298.676 221.444 299.256 221.92 299.826C238.249 319.453 267.399 322.127 287.026 305.799C287.592 305.326 288.144 304.844 288.684 304.352C289.406 304.452 290.133 304.536 290.867 304.604C316.292 306.935 338.795 288.215 341.127 262.79ZM340.848 251.907C355.003 238.367 357.004 216.366 345.513 200.494C342.033 210.608 335.183 219.028 326.406 224.556C334.083 231.635 339.306 241.243 340.848 251.907ZM308.132 146.606C327.468 149.741 341.584 166.735 341.111 186.325C332.513 179.963 322.096 176.906 311.733 177.326C314.046 167.144 312.905 156.267 308.132 146.606ZM229.575 139.422C223.199 147.964 220.101 158.321 220.45 168.644C210.431 166.438 199.76 167.57 190.249 172.206C193.449 153.092 210.205 139.13 229.575 139.422ZM243.921 134.964C254.014 138.39 262.437 145.168 268 153.871C275.004 146.376 284.438 141.261 294.901 139.691C281.433 125.756 259.714 123.747 243.921 134.964ZM183.003 250.982C191.602 257.346 202.019 260.402 212.382 259.983C210.069 270.164 211.21 281.04 215.982 290.702C196.647 287.567 182.531 270.572 183.003 250.982ZM229.212 297.616C242.68 311.552 264.399 313.56 280.194 302.344C270.101 298.918 261.678 292.139 256.116 283.437C249.111 290.933 239.677 296.046 229.212 297.616ZM178.601 236.815C182.081 226.701 188.932 218.278 197.708 212.751C190.032 205.674 184.809 196.066 183.266 185.402C169.112 198.94 167.111 220.941 178.601 236.815Z" fill="#B07E69"/>
<path fill-rule="evenodd" clip-rule="evenodd" d="M171.55 101.081C175.075 83.0155 193.235 72.7747 211.452 79.8296L213.976 73.3131C191.806 64.7278 169.071 77.2972 164.692 99.7424L171.55 101.081Z" fill="#B07E69"/>
<path d="M186.991 94.5006C188.673 97.3189 192.322 98.2395 195.14 96.5565C197.959 94.8738 198.879 91.2251 197.196 88.4069C195.513 85.5886 191.865 84.668 189.046 86.351C186.228 88.0337 185.308 91.6826 186.991 94.5006Z" fill="#CA8852"/>
<path fill-rule="evenodd" clip-rule="evenodd" d="M358.818 104.694C355.294 86.6283 337.134 76.3879 318.916 83.4425L316.394 76.9259C338.562 68.3407 361.299 80.91 365.678 103.355L358.818 104.694Z" fill="#B07E69"/>
<path d="M343.377 98.1115C341.695 100.93 338.045 101.85 335.227 100.167C332.408 98.4844 331.488 94.8357 333.172 92.0175C334.854 89.1992 338.502 88.2789 341.32 89.9616C344.139 91.6443 345.059 95.2932 343.377 98.1115Z" fill="#CA8852"/>
<path fill-rule="evenodd" clip-rule="evenodd" d="M298.451 82.6489C302.891 97.7759 300.615 110.324 295.181 120.362L301.791 123.94C308.146 112.201 310.676 97.6098 305.663 80.5318C300.68 63.5632 288.328 44.3762 265.403 23.0779L262.649 20.5201L260.092 23.2734C239.153 45.8116 228.256 65.5628 224.357 82.6501C220.435 99.8432 223.654 114.122 230.499 125.393L236.924 121.492C231.081 111.872 228.202 99.5895 231.685 84.3219C235.042 69.6049 244.362 51.9228 263.043 31.1831C283.557 50.8423 294.165 68.0524 298.451 82.6489Z" fill="#B49A7E"/>
<path fill-rule="evenodd" clip-rule="evenodd" d="M263.24 52.9191C269.956 52.5154 275.728 57.6327 276.131 64.3489C276.536 71.0651 271.419 76.837 264.701 77.2406C257.985 77.6441 252.213 72.5268 251.81 65.8106C251.407 59.0944 256.525 53.3225 263.24 52.9191ZM262.905 47.344C272.7 46.7552 281.118 54.2186 281.707 64.014C282.294 73.8091 274.831 82.2268 265.036 82.8155C255.241 83.4043 246.823 75.9409 246.236 66.1455C245.647 56.3504 253.11 47.9327 262.905 47.344Z" fill="#B49A7E"/>
<path fill-rule="evenodd" clip-rule="evenodd" d="M263.728 62.6482C267.357 62.4302 270.476 65.1949 270.693 68.8233C270.912 72.4517 268.147 75.57 264.518 75.788C260.891 76.006 257.772 73.2414 257.553 69.6129C257.336 65.9845 260.101 62.8662 263.728 62.6482ZM263.46 58.1882C269.554 57.8221 274.788 62.4635 275.153 68.5552C275.519 74.6469 270.879 79.8821 264.785 80.248C258.694 80.6142 253.46 75.9727 253.094 69.881C252.729 63.7894 257.369 58.5544 263.46 58.1882Z" fill="#B07E69"/>
<path fill-rule="evenodd" clip-rule="evenodd" d="M268.047 110.054L267.099 77.6809L262.021 77.8298L262.966 110.203L268.047 110.054Z" fill="#B07E69"/>
<path fill-rule="evenodd" clip-rule="evenodd" d="M253.728 93.2334L276.259 92.4048L276.073 87.326L253.541 88.1545L253.728 93.2334Z" fill="#B07E69"/>
<path fill-rule="evenodd" clip-rule="evenodd" d="M253.967 148.696L252.451 148.851C240.869 150.041 224.35 147.528 213.406 135.328C202.302 122.949 198.006 101.838 208.328 68.2457L209.431 64.6536L213.024 65.7572C246.616 76.079 261.673 91.4878 265.679 107.627C269.63 123.534 262.434 138.613 254.946 147.53L253.967 148.696ZM214.437 74.0991C205.934 104.205 210.747 121.108 219.001 130.309C227.314 139.576 240.108 142.177 250.156 141.504C256.355 133.567 261.386 121.521 258.386 109.438C255.407 97.4428 244.123 83.9683 214.437 74.0991Z" fill="#C9BDB0"/>
<path fill-rule="evenodd" clip-rule="evenodd" d="M279.017 148.072L280.538 148.152C292.166 148.765 308.539 145.435 318.865 132.707C329.34 119.792 332.582 98.4932 320.605 65.455L319.324 61.9219L315.793 63.2028C282.753 75.1795 268.481 91.317 265.278 107.635C262.125 123.719 270.061 138.422 277.98 146.956L279.017 148.072ZM314.796 71.6045C324.781 101.251 320.812 118.372 313.028 127.971C305.185 137.64 292.536 140.873 282.467 140.7C275.882 133.08 270.259 121.299 272.655 109.082C275.034 96.9535 285.635 82.9353 314.796 71.6045Z" fill="#C9BDB0"/>
<path fill-rule="evenodd" clip-rule="evenodd" d="M162.472 119.133C177.793 122.851 187.521 131.095 193.498 140.821L199.902 136.886C192.912 125.513 181.541 116.026 164.244 111.829C147.058 107.659 124.265 108.763 94.3584 117.967L90.7666 119.072L91.8721 122.664C100.921 152.067 112.577 171.38 125.426 183.3C138.355 195.293 152.33 199.644 165.513 199.353L165.347 191.838C154.095 192.088 142.019 188.44 130.538 177.79C119.472 167.524 108.818 150.612 100.197 124.064C127.48 116.127 147.688 115.546 162.472 119.133Z" fill="#B49A7E"/>
<path fill-rule="evenodd" clip-rule="evenodd" d="M119.119 134.76C122.128 128.742 129.445 126.302 135.464 129.311C141.482 132.32 143.922 139.637 140.913 145.655C137.905 151.674 130.587 154.114 124.569 151.105C118.55 148.096 116.111 140.779 119.119 134.76ZM114.123 132.263C118.511 123.486 129.184 119.928 137.961 124.315C146.738 128.703 150.296 139.376 145.909 148.153C141.521 156.93 130.849 160.488 122.071 156.101C113.294 151.713 109.736 141.04 114.123 132.263Z" fill="#B49A7E"/>
<path fill-rule="evenodd" clip-rule="evenodd" d="M127.787 139.202C129.413 135.951 133.366 134.632 136.617 136.258C139.869 137.883 141.187 141.837 139.562 145.088C137.936 148.339 133.983 149.657 130.731 148.032C127.48 146.407 126.162 142.453 127.787 139.202ZM123.791 137.204C126.519 131.745 133.157 129.533 138.615 132.261C144.074 134.99 146.287 141.627 143.558 147.086C140.829 152.544 134.192 154.758 128.733 152.029C123.275 149.3 121.062 142.663 123.791 137.204Z" fill="#B07E69"/>
<path fill-rule="evenodd" clip-rule="evenodd" d="M171.003 159.166L142.493 143.8L140.082 148.274L168.592 163.64L171.003 159.166Z" fill="#B07E69"/>
<path fill-rule="evenodd" clip-rule="evenodd" d="M149.273 163.158L159.822 143.23L155.33 140.852L144.781 160.78L149.273 163.158Z" fill="#B07E69"/>
<path fill-rule="evenodd" clip-rule="evenodd" d="M197.428 190.68L196.805 192.068C192.044 202.694 181.609 215.743 165.571 219.121C149.299 222.55 128.868 215.713 104.937 189.979L102.378 187.228L105.13 184.668C130.865 160.736 151.738 155.402 167.719 160C183.469 164.533 192.93 178.305 196.908 189.247L197.428 190.68ZM113.061 187.614C134.882 210.032 151.927 214.313 164.022 211.767C176.204 209.2 184.853 199.422 189.294 190.384C185.52 181.047 177.604 170.666 165.64 167.223C153.762 163.805 136.451 166.84 113.061 187.614Z" fill="#C9BDB0"/>
<path fill-rule="evenodd" clip-rule="evenodd" d="M209.412 168.675L210.242 167.398C216.586 157.635 221.889 141.79 216.029 126.484C210.082 110.954 193.258 97.4972 158.658 91.3505L154.958 90.6932L154.3 94.3931C148.153 128.994 154.992 149.423 167.524 160.355C179.875 171.129 196.576 171.608 207.928 169.014L209.412 168.675ZM161.078 99.4575C191.746 105.632 204.59 117.629 209.01 129.172C213.461 140.798 209.937 153.368 204.752 162.002C194.861 163.895 181.846 162.875 172.465 154.691C163.15 146.566 156.311 130.376 161.078 99.4575Z" fill="#C9BDB0"/>
<path fill-rule="evenodd" clip-rule="evenodd" d="M398.038 182.171C387.157 193.58 375.154 197.882 363.743 198.197L363.95 205.709C377.292 205.343 391.194 200.24 403.477 187.358C415.682 174.56 426.122 154.268 433.103 123.766L433.942 120.103L430.28 119.264C400.292 112.399 377.737 112.837 360.989 118.005C344.139 123.204 333.384 133.132 327.044 144.695L333.636 148.308C339.045 138.439 348.243 129.804 363.207 125.187C377.63 120.736 397.604 119.966 424.904 125.774C418.137 153.37 408.536 171.162 398.038 182.171Z" fill="#B49A7E"/>
<path fill-rule="evenodd" clip-rule="evenodd" d="M406.18 136.812C409.886 142.427 408.342 149.984 402.726 153.692C397.112 157.399 389.556 155.854 385.847 150.239C382.139 144.624 383.686 137.067 389.3 133.359C394.916 129.652 402.472 131.198 406.18 136.812ZM410.841 133.735C416.248 141.923 413.993 152.945 405.805 158.352C397.615 163.76 386.595 161.505 381.186 153.317C375.78 145.128 378.035 134.106 386.222 128.699C394.41 123.291 405.433 125.546 410.841 133.735Z" fill="#B49A7E"/>
<path fill-rule="evenodd" clip-rule="evenodd" d="M397.998 142.1C400.001 145.134 399.165 149.217 396.132 151.22C393.099 153.223 389.016 152.388 387.013 149.354C385.009 146.321 385.846 142.238 388.878 140.235C391.911 138.232 395.995 139.067 397.998 142.1ZM401.727 139.638C405.088 144.731 403.686 151.585 398.594 154.948C393.502 158.311 386.647 156.909 383.283 151.817C379.922 146.724 381.324 139.87 386.416 136.507C391.508 133.144 398.364 134.546 401.727 139.638Z" fill="#B07E69"/>
<path fill-rule="evenodd" clip-rule="evenodd" d="M359.102 169.543L386.662 152.536L383.995 148.21L356.432 165.218L359.102 169.543Z" fill="#B07E69"/>
<path fill-rule="evenodd" clip-rule="evenodd" d="M366.506 148.73L378.491 167.83L382.795 165.129L370.813 146.029L366.506 148.73Z" fill="#B07E69"/>
<path fill-rule="evenodd" clip-rule="evenodd" d="M318.595 176.671L317.703 175.437C310.883 166 304.799 150.439 309.893 134.861C315.062 119.054 331.195 104.779 365.448 96.9214L369.112 96.0812L369.95 99.7441C377.81 133.997 371.993 154.741 360.018 166.281C348.218 177.655 331.561 178.962 320.096 176.936L318.595 176.671ZM363.433 105.139C333.11 112.828 320.878 125.448 317.037 137.196C313.168 149.029 317.312 161.409 322.919 169.775C332.891 171.175 345.839 169.509 354.803 160.869C363.703 152.292 369.729 135.783 363.433 105.139Z" fill="#C9BDB0"/>
<path fill-rule="evenodd" clip-rule="evenodd" d="M331.662 198.052L332.352 199.407C337.635 209.785 348.706 222.298 364.89 224.876C381.314 227.492 401.379 219.649 424.004 192.76L426.422 189.883L423.548 187.465C396.655 164.84 375.545 160.548 359.81 165.935C344.303 171.244 335.538 185.469 332.109 196.596L331.662 198.052ZM415.772 190.801C395.09 214.273 378.279 219.398 366.073 217.453C353.779 215.496 344.655 206.158 339.771 197.353C343.076 187.84 350.467 177.078 362.246 173.046C373.94 169.042 391.379 171.214 415.772 190.801Z" fill="#C9BDB0"/>
<path fill-rule="evenodd" clip-rule="evenodd" d="M228.369 310.007C278.824 328.612 334.805 302.793 353.409 252.338C372.014 201.884 346.193 145.903 295.739 127.299C245.286 108.695 189.303 134.515 170.7 184.968C152.096 235.422 177.916 291.405 228.369 310.007ZM225.979 316.49C280.014 336.415 339.969 308.764 359.892 254.73C379.815 200.696 352.163 140.74 298.129 120.816C244.096 100.892 184.141 128.544 164.217 182.578C144.293 236.612 171.945 296.567 225.979 316.49Z" fill="#B07E69"/>
<line x1="445.367" y1="167.206" x2="84.6339" y2="167.206" stroke="#B49A7E" stroke-width="4"/>
</g>
<defs>
<clipPath id="clip0_76_1470">
<rect width="523.486" height="167.515" fill="white" transform="translate(0.257324 0.485596)"/>
</clipPath>
</defs>
</svg>
