<svg width="4.1875rem" height="4.1875rem" viewBox="0 0 67 67" fill="none" xmlns="http://www.w3.org/2000/svg">
<path d="M28.0443 15.8049C28.0659 15.1148 27.524 14.538 26.834 14.5164C26.144 14.4948 25.5671 15.0367 25.5456 15.7268L28.0443 15.8049ZM35.0699 14.1896L36.222 13.7045C36.2114 13.6795 36.2001 13.6548 36.188 13.6306L35.0699 14.1896ZM32.3116 8.67296L33.4296 8.11394C33.3203 7.89536 33.1494 7.71361 32.9379 7.59117L32.3116 8.67296ZM18.9141 8.67296L18.2156 7.63631C18.0468 7.75004 17.9084 7.90327 17.8122 8.08268L18.9141 8.67296ZM15.9587 14.1896L16.3621 15.3727C16.6615 15.2706 16.9111 15.0588 17.0606 14.7799L15.9587 14.1896ZM7.28973 17.1449L6.88639 15.9618C6.46469 16.1055 6.15139 16.4629 6.06401 16.8997L7.28973 17.1449ZM20.8842 27.193L22.1003 27.4823C22.1316 27.3506 22.1413 27.2147 22.1291 27.0799L20.8842 27.193ZM23.1379 48.5516L24.3821 48.6728C24.4155 48.3296 24.3057 47.9879 24.0787 47.7285L23.1379 48.5516ZM22.2634 57.5345L22.5497 58.7513C23.0706 58.6287 23.4556 58.1882 23.5075 57.6556L22.2634 57.5345ZM18.9141 60.2928H17.6641C17.6641 60.9832 18.2237 61.5428 18.9141 61.5428V60.2928ZM26.2586 61.5428C26.9489 61.5428 27.5086 60.9832 27.5086 60.2928C27.5086 59.6024 26.9489 59.0428 26.2586 59.0428V61.5428ZM27.3866 51.4477L28.6255 51.2814L27.3866 51.4477ZM32.0119 56.6535L32.488 57.8093C32.9688 57.6113 33.2767 57.1363 33.2614 56.6166C33.246 56.0969 32.9105 55.6409 32.4188 55.4716L32.0119 56.6535ZM27.942 60.2928L26.7013 60.1402C26.6576 60.4956 26.7684 60.8528 27.0057 61.121C27.243 61.3892 27.5839 61.5428 27.942 61.5428V60.2928ZM38.0184 60.2928V61.5428C38.1184 61.5428 38.218 61.5308 38.3151 61.5071L38.0184 60.2928ZM41.799 58.1453C42.024 57.4926 41.6774 56.7811 41.0248 56.556C40.3721 56.331 39.6606 56.6776 39.4355 57.3303L41.799 58.1453ZM50.1609 54.4119L48.9128 54.4813C48.9478 55.1096 49.4442 55.6139 50.0719 55.6587L50.1609 54.4119ZM49.5395 47.4357C49.0514 46.9475 48.2599 46.9475 47.7717 47.4357C47.2836 47.9238 47.2836 48.7153 47.7717 49.2035L49.5395 47.4357ZM60.355 46.7482L61.4714 46.1858C61.2518 45.7499 60.7986 45.4817 60.3108 45.499C59.8231 45.5162 59.39 45.8158 59.2017 46.2661L60.355 46.7482ZM51.3899 60.2681V61.5181C51.4544 61.5181 51.5188 61.5131 51.5825 61.5032L51.3899 60.2681ZM40.8336 59.0181C40.1433 59.0181 39.5836 59.5778 39.5836 60.2681C39.5836 60.9585 40.1433 61.5181 40.8336 61.5181V59.0181ZM36.2896 21.9471C36.1383 21.2735 35.4697 20.8501 34.7961 21.0013C34.1225 21.1526 33.6991 21.8212 33.8503 22.4948L36.2896 21.9471ZM27.8402 26.7369V25.4869C27.1498 25.4869 26.5902 26.0465 26.5902 26.7369H27.8402ZM27.8402 48.1067H26.5902C26.5902 48.7971 27.1498 49.3567 27.8402 49.3567V48.1067ZM55.4186 48.1067V49.3567C56.109 49.3567 56.6686 48.7971 56.6686 48.1067H55.4186ZM55.4186 26.7369H56.6686C56.6686 26.0465 56.109 25.4869 55.4186 25.4869V26.7369ZM29.0341 48.545C29.3642 47.9387 29.1402 47.1796 28.5338 46.8495C27.9275 46.5195 27.1684 46.7435 26.8383 47.3498L29.0341 48.545ZM25.5456 15.7268C25.4751 17.9816 25.9666 20.8103 27.2247 22.7845C27.8645 23.7885 28.772 24.6756 30.0064 25.0409C31.2653 25.4136 32.6301 25.1751 34.024 24.3852L32.7915 22.2102C31.821 22.7601 31.1607 22.7754 30.7159 22.6437C30.2466 22.5048 29.7718 22.1295 29.333 21.441C28.434 20.0302 27.9835 17.7531 28.0443 15.8049L25.5456 15.7268ZM34.024 24.3852C35.3543 23.6314 36.295 22.7402 36.8886 21.7269C37.4854 20.7082 37.6829 19.6485 37.6556 18.6408C37.6035 16.7177 36.7041 14.8496 36.222 13.7045L33.9179 14.6747C34.4865 16.0252 35.1203 17.3713 35.1566 18.7085C35.1734 19.331 35.0539 19.9129 34.7315 20.4632C34.406 21.0189 33.8255 21.6242 32.7915 22.2102L34.024 24.3852ZM36.188 13.6306L33.4296 8.11394L31.1936 9.23199L33.9519 14.7486L36.188 13.6306ZM32.3116 8.67296C32.9379 7.59117 32.9375 7.59097 32.9372 7.59077C32.937 7.59069 32.9367 7.59048 32.9364 7.59032C32.9359 7.59001 32.9353 7.58967 32.9346 7.5893C32.9333 7.58857 32.9319 7.58772 32.9302 7.58677C32.9269 7.58486 32.9228 7.58251 32.9179 7.57975C32.9081 7.57422 32.8952 7.56702 32.8794 7.55825C32.8476 7.54072 32.8038 7.51695 32.7484 7.4879C32.6376 7.42983 32.4803 7.35055 32.2807 7.25792C31.8821 7.07288 31.3122 6.83325 30.6054 6.60305C29.1969 6.14427 27.2137 5.71275 24.9468 5.84904L25.0968 8.34453C26.9675 8.23207 28.6292 8.58863 29.8312 8.98014C30.4296 9.17507 30.9063 9.37612 31.2281 9.52549C31.3887 9.60006 31.51 9.66141 31.5877 9.70216C31.6266 9.72253 31.6545 9.73772 31.671 9.7468C31.6792 9.75134 31.6845 9.75435 31.687 9.75572C31.6882 9.7564 31.6886 9.75667 31.6884 9.75651C31.6882 9.75644 31.6879 9.75625 31.6874 9.75596C31.6871 9.75581 31.6868 9.75564 31.6865 9.75544C31.6863 9.75534 31.686 9.75516 31.6859 9.75511C31.6856 9.75494 31.6853 9.75475 32.3116 8.67296ZM24.9468 5.84904C22.7551 5.98081 21.1112 6.40009 19.9935 6.80184C19.4353 7.00249 19.01 7.19817 18.7146 7.35023C18.5669 7.42624 18.4517 7.49131 18.3687 7.54061C18.3272 7.56525 18.2937 7.58596 18.2682 7.60211C18.2554 7.61018 18.2447 7.61712 18.2359 7.62285C18.2316 7.62571 18.2277 7.62827 18.2243 7.63052C18.2226 7.63164 18.221 7.63269 18.2196 7.63365C18.2189 7.63413 18.2182 7.6346 18.2175 7.63504C18.2172 7.63526 18.2167 7.63558 18.2165 7.63569C18.2161 7.636 18.2156 7.63631 18.9141 8.67296C19.6126 9.70961 19.6121 9.70991 19.6117 9.7102C19.6115 9.71029 19.6111 9.71058 19.6108 9.71076C19.6103 9.71112 19.6098 9.71147 19.6093 9.71179C19.6084 9.71243 19.6075 9.713 19.6068 9.71348C19.6053 9.71445 19.6043 9.7151 19.6038 9.71544C19.6027 9.71613 19.6036 9.71559 19.6063 9.71388C19.6116 9.71046 19.6245 9.7024 19.645 9.69027C19.6859 9.666 19.7569 9.62542 19.8586 9.5731C20.0618 9.46849 20.3877 9.31677 20.8392 9.15447C21.741 8.83033 23.1509 8.46152 25.0968 8.34453L24.9468 5.84904ZM17.8122 8.08268L14.8569 13.5993L17.0606 14.7799L20.0159 9.26325L17.8122 8.08268ZM15.5554 13.0064L6.88639 15.9618L7.69308 18.328L16.3621 15.3727L15.5554 13.0064ZM6.06401 16.8997C5.76853 18.3771 5.72457 20.6476 6.67681 22.615C7.16399 23.6217 7.91733 24.5561 9.02579 25.2314C10.1319 25.9052 11.5174 26.2758 13.2003 26.2758V23.7758C11.8886 23.7758 10.9721 23.4897 10.3264 23.0964C9.68304 22.7044 9.23455 22.1612 8.9271 21.5259C8.29005 20.2097 8.28553 18.5397 8.51546 17.3901L6.06401 16.8997ZM13.2003 26.2758C16.1129 26.2758 17.8466 26.6296 18.8117 27.004C19.2928 27.1906 19.5399 27.3657 19.6481 27.4661C19.7702 27.5793 19.6605 27.5392 19.6394 27.3062L22.1291 27.0799C22.0751 26.4857 21.7372 25.994 21.3483 25.6333C20.9455 25.2595 20.3987 24.938 19.7157 24.6731C18.3526 24.1444 16.2773 23.7758 13.2003 23.7758V26.2758ZM19.6681 26.9038C18.6382 31.234 18.6579 36.1043 19.2058 40.1986C19.4805 42.2514 19.8919 44.1389 20.3866 45.6941C20.8683 47.2088 21.4707 48.5445 22.1972 49.3748L24.0787 47.7285C23.7018 47.2978 23.2245 46.3686 22.769 44.9364C22.3264 43.5447 21.9428 41.8033 21.6837 39.867C21.164 35.9833 21.1601 31.4352 22.1003 27.4823L19.6681 26.9038ZM21.8938 48.4305L21.0193 57.4134L23.5075 57.6556L24.3821 48.6728L21.8938 48.4305ZM21.9771 56.3177C21.3171 56.473 20.3337 56.8164 19.4824 57.3773C18.672 57.9112 17.6641 58.8623 17.6641 60.2928H20.1641C20.1641 60.1471 20.2726 59.8505 20.8578 59.4649C21.402 59.1063 22.0933 58.8587 22.5497 58.7513L21.9771 56.3177ZM18.9141 61.5428H23.1379V59.0428H18.9141V61.5428ZM23.1379 61.5428H26.2586V59.0428H23.1379V61.5428ZM26.1477 51.6139C26.7753 56.2915 30.7959 57.5569 31.605 57.8355L32.4188 55.4716C31.5767 55.1817 29.0357 54.3388 28.6255 51.2814L26.1477 51.6139ZM31.5359 55.4977C30.8223 55.7916 29.7549 56.3386 28.8166 57.0566C27.9461 57.7229 26.8694 58.7742 26.7013 60.1402L29.1826 60.4454C29.2181 60.1573 29.5404 59.6508 30.336 59.0419C31.0639 58.4849 31.9297 58.0393 32.488 57.8093L31.5359 55.4977ZM27.942 61.5428H38.0184V59.0428H27.942V61.5428ZM38.3151 61.5071C39.2537 61.2778 41.0515 60.3128 41.799 58.1453L39.4355 57.3303C39.0262 58.5174 38.0337 59.0023 37.7217 59.0786L38.3151 61.5071ZM51.409 54.3426C51.3596 53.4533 51.2541 52.1397 51.0113 50.8889C50.8899 50.2637 50.7286 49.6241 50.5093 49.0471C50.2966 48.4872 49.9939 47.8901 49.5395 47.4357L47.7717 49.2035C47.8668 49.2985 48.0149 49.5207 48.1724 49.9351C48.3233 50.3324 48.4516 50.8218 48.5571 51.3654C48.7681 52.4522 48.8658 53.6353 48.9128 54.4813L51.409 54.3426ZM50.0719 55.6587C51.2756 55.7447 53.3072 56.1019 55.427 55.0876C57.576 54.0593 59.6116 51.7675 61.5083 47.2303L59.2017 46.2661C57.4112 50.5493 55.6993 52.1858 54.3479 52.8325C52.9672 53.4931 51.7453 53.2719 50.25 53.1651L50.0719 55.6587ZM59.2387 47.3106C59.8972 48.6178 60.3076 51.2063 59.3503 53.6203C58.4383 55.92 56.2048 58.2523 51.1974 59.033L51.5825 61.5032C57.3332 60.6066 60.3895 57.7815 61.6742 54.5419C62.9136 51.4166 62.4275 48.0838 61.4714 46.1858L59.2387 47.3106ZM51.3899 59.0181H40.8336V61.5181H51.3899V59.0181ZM33.8503 22.4948C33.9584 22.9765 34.2647 23.5106 34.5302 23.93C34.8267 24.3985 35.1972 24.9119 35.5737 25.399C36.2967 26.3342 37.1647 27.33 37.6645 27.7336L39.2354 25.7888C38.9877 25.5888 38.2764 24.8074 37.5516 23.8699C37.2043 23.4206 36.8837 22.9738 36.6425 22.5928C36.5218 22.4021 36.4292 22.2408 36.3649 22.113C36.294 21.9718 36.2843 21.9238 36.2896 21.9471L33.8503 22.4948ZM26.5902 26.7369V48.1067H29.0902V26.7369H26.5902ZM27.8402 49.3567H55.4186V46.8567H27.8402V49.3567ZM56.6686 48.1067V26.7369H54.1686V48.1067H56.6686ZM55.4186 25.4869H27.8402V27.9869H55.4186V25.4869ZM26.8383 47.3498C25.9984 48.8929 25.98 50.3641 26.1477 51.6139L28.6255 51.2814C28.4982 50.3332 28.5384 49.4557 29.0341 48.545L26.8383 47.3498Z" fill="#8A4F37"/>
<path d="M37.0814 31.119C36.5196 30.7177 35.7389 30.8478 35.3376 31.4096C34.9364 31.9714 35.0665 32.752 35.6283 33.1533L37.0814 31.119ZM43.6313 44.2952C43.77 44.9715 44.4307 45.4072 45.107 45.2685C45.7832 45.1298 46.219 44.4691 46.0803 43.7928L43.6313 44.2952ZM41.3743 29.9916C40.83 29.567 40.0446 29.664 39.6199 30.2083C39.1953 30.7526 39.2922 31.5381 39.8365 31.9627L41.3743 29.9916ZM46.4744 42.7447C46.5844 43.4262 47.2261 43.8895 47.9076 43.7795C48.5892 43.6695 49.0525 43.0279 48.9425 42.3463L46.4744 42.7447ZM32.7676 36.8642C32.1057 37.0604 31.7281 37.7559 31.9242 38.4178C32.1203 39.0798 32.8159 39.4574 33.4778 39.2612L32.7676 36.8642ZM39.4852 34.1981C39.7466 33.5592 39.4405 32.8293 38.8015 32.5679C38.1626 32.3065 37.4327 32.6126 37.1713 33.2515L39.4852 34.1981ZM38.2888 42.5925C37.6515 42.858 37.3502 43.5899 37.6157 44.2271C37.8812 44.8644 38.6131 45.1657 39.2503 44.9002L38.2888 42.5925ZM44.1252 40.8314C44.4428 40.2185 44.2033 39.4641 43.5904 39.1465C42.9774 38.8289 42.2231 39.0683 41.9054 39.6813L44.1252 40.8314ZM32.6952 41.636C32.0333 41.8321 31.6557 42.5277 31.8518 43.1896C32.0479 43.8515 32.7435 44.2291 33.4054 44.033L32.6952 41.636ZM42.0879 37.2347C42.3493 36.5957 42.0432 35.8658 41.4042 35.6044C40.7653 35.343 40.0354 35.6491 39.774 36.2881L42.0879 37.2347ZM35.6283 33.1533C38.2918 35.0558 42.3455 38.0272 43.6313 44.2952L46.0803 43.7928C44.5898 36.5264 39.8162 33.0724 37.0814 31.119L35.6283 33.1533ZM39.8365 31.9627C41.9446 33.6074 45.6076 37.3738 46.4744 42.7447L48.9425 42.3463C47.9332 36.0929 43.724 31.8247 41.3743 29.9916L39.8365 31.9627ZM33.4778 39.2612C34.2553 39.0309 35.4224 38.5233 36.5481 37.7218C37.6723 36.9213 38.845 35.7629 39.4852 34.1981L37.1713 33.2515C36.7703 34.2317 35.9909 35.0495 35.098 35.6853C34.2065 36.3201 33.2914 36.709 32.7676 36.8642L33.4778 39.2612ZM39.2503 44.9002C40.4084 44.4176 42.6254 43.7259 44.1252 40.8314L41.9054 39.6813C40.873 41.6737 39.5122 42.0827 38.2888 42.5925L39.2503 44.9002ZM33.4054 44.033C33.8647 43.8969 34.5524 43.5732 35.2789 43.1803C36.0342 42.7717 36.9189 42.2404 37.7959 41.6381C38.6699 41.0378 39.5587 40.3518 40.3091 39.6314C41.0402 38.9295 41.7293 38.1112 42.0879 37.2347L39.774 36.2881C39.612 36.684 39.2185 37.2129 38.5777 37.828C37.9562 38.4247 37.1839 39.0256 36.3806 39.5773C35.5802 40.127 34.7712 40.6126 34.0896 40.9813C33.3792 41.3656 32.8866 41.5793 32.6952 41.636L33.4054 44.033Z" fill="#D99F87"/>
</svg>
