<svg width="4.1875rem" height="4.1875rem" viewBox="0 0 67 67" fill="none" xmlns="http://www.w3.org/2000/svg">
<path d="M56.9315 8.48234C57.356 7.93792 57.2587 7.15246 56.7143 6.72796C56.1699 6.30346 55.3844 6.40068 54.9599 6.9451L56.9315 8.48234ZM49.299 18.271L56.9315 8.48234L54.9599 6.9451L47.3275 16.7338L49.299 18.271Z" fill="#D99F87"/>
<path d="M43.5023 28.9205C42.9579 28.496 42.1724 28.5932 41.7479 29.1376C41.3234 29.682 41.4207 30.4675 41.9651 30.892L43.5023 28.9205ZM39.938 33.4917C39.3936 33.0672 38.6082 33.1644 38.1837 33.7088C37.7592 34.2532 37.8564 35.0387 38.4008 35.4632L39.938 33.4917ZM36.3739 38.0627C35.8294 37.6382 35.044 37.7355 34.6195 38.2799C34.195 38.8243 34.2922 39.6098 34.8366 40.0343L36.3739 38.0627ZM32.8096 42.634C32.2652 42.2095 31.4797 42.3067 31.0552 42.8511C30.6307 43.3955 30.7279 44.181 31.2723 44.6055L32.8096 42.634ZM34.0843 46.798C34.6287 47.2225 35.4141 47.1253 35.8386 46.5808C36.2631 46.0364 36.1659 45.251 35.6215 44.8265L34.0843 46.798ZM41.9651 30.892L44.777 33.0845L46.3142 31.113L43.5023 28.9205L41.9651 30.892ZM38.4008 35.4632L41.2127 37.6557L42.75 35.6842L39.938 33.4917L38.4008 35.4632ZM34.8366 40.0343L37.6485 42.2268L39.1858 40.2553L36.3739 38.0627L34.8366 40.0343ZM31.2723 44.6055L34.0843 46.798L35.6215 44.8265L32.8096 42.634L31.2723 44.6055Z" fill="#D99F87"/>
<path d="M19.8304 41.9992L18.8371 41.2403C18.421 41.7851 18.5212 42.5634 19.0618 42.9849L19.8304 41.9992ZM38.1332 18.0401L38.9018 17.0544C38.6386 16.8492 38.3044 16.7578 37.9735 16.8004C37.6425 16.843 37.3424 17.0162 37.1398 17.2813L38.1332 18.0401ZM49.9881 27.2837L50.9841 28.0391C51.3973 27.4942 51.296 26.7184 50.7568 26.2979L49.9881 27.2837ZM31.7682 51.3073L30.9996 52.2931C31.2633 52.4987 31.5984 52.5901 31.93 52.5468C32.2616 52.5035 32.5621 52.3291 32.7641 52.0626L31.7682 51.3073ZM33.586 54.8889C34.1304 55.3134 34.9159 55.2162 35.3404 54.6718C35.7649 54.1273 35.6676 53.3419 35.1232 52.9174L33.586 54.8889ZM17.6831 39.3189C17.1387 38.8944 16.3532 38.9916 15.9287 39.536C15.5042 40.0805 15.6014 40.8659 16.1458 41.2904L17.6831 39.3189ZM17.2428 52.1768L16.2625 51.4012L15.4937 52.373L16.4586 53.1503L17.2428 52.1768ZM22.6641 56.544L21.8799 57.5174L22.8701 58.3151L23.6508 57.3114L22.6641 56.544ZM24.3053 59.4087C24.8497 59.8332 25.6352 59.736 26.0596 59.1916C26.4841 58.6471 26.3869 57.8617 25.8425 57.4372L24.3053 59.4087ZM15.3998 49.2948C14.8554 48.8703 14.0699 48.9675 13.6454 49.5119C13.2209 50.0563 13.3181 50.8418 13.8626 51.2663L15.3998 49.2948ZM45.2599 16.3L46.0285 15.3142C45.7671 15.1104 45.4354 15.0187 45.1064 15.0595C44.7774 15.1002 44.478 15.2699 44.2741 15.5314L45.2599 16.3ZM49.9467 19.9544L50.9324 20.723C51.3569 20.1786 51.2597 19.3931 50.7153 18.9686L49.9467 19.9544ZM37.3645 19.0259L49.2195 28.2695L50.7568 26.2979L38.9018 17.0544L37.3645 19.0259ZM48.9922 26.5283L30.7722 50.5519L32.7641 52.0626L50.9841 28.0391L48.9922 26.5283ZM20.8238 42.758L39.1265 18.799L37.1398 17.2813L18.8371 41.2403L20.8238 42.758ZM32.5368 50.3215L20.599 41.0134L19.0618 42.9849L30.9996 52.2931L32.5368 50.3215ZM35.1232 52.9174L17.6831 39.3189L16.1458 41.2904L33.586 54.8889L35.1232 52.9174ZM21.9465 44.217L16.2625 51.4012L18.2231 52.9524L23.907 45.7682L21.9465 44.217ZM16.4586 53.1503L21.8799 57.5174L23.4482 55.5705L18.0269 51.2034L16.4586 53.1503ZM23.6508 57.3114L29.3426 49.9933L27.3692 48.4584L21.6774 55.7766L23.6508 57.3114ZM25.8425 57.4372L15.3998 49.2948L13.8626 51.2663L24.3053 59.4087L25.8425 57.4372ZM43.1013 21.1013L46.2457 17.0686L44.2741 15.5314L41.1298 19.5641L43.1013 21.1013ZM44.4913 17.2857L49.178 20.9401L50.7153 18.9686L46.0285 15.3142L44.4913 17.2857ZM48.9609 19.1857L45.8165 23.2184L47.788 24.7557L50.9324 20.723L48.9609 19.1857Z" fill="#8A4F37"/>
</svg>
