<svg width="2.0625rem" height="2.0625rem" viewBox="0 0 33 33" fill="none" xmlns="http://www.w3.org/2000/svg">
<path d="M16.948 21.2099C19.7094 21.2099 21.948 18.9714 21.948 16.2099C21.948 13.4485 19.7094 11.2099 16.948 11.2099C14.1866 11.2099 11.948 13.4485 11.948 16.2099C11.948 18.9714 14.1866 21.2099 16.948 21.2099Z" stroke="#8A4F37" stroke-width="2.5" stroke-miterlimit="10"/>
<path d="M22.448 4.70993H11.448C8.13429 4.70993 5.448 7.39622 5.448 10.7099V21.7099C5.448 25.0236 8.13429 27.7099 11.448 27.7099H22.448C25.7617 27.7099 28.448 25.0236 28.448 21.7099V10.7099C28.448 7.39622 25.7617 4.70993 22.448 4.70993Z" stroke="#8A4F37" stroke-width="2.5" stroke-linecap="round" stroke-linejoin="round"/>
<path d="M23.448 11.2099C24.2764 11.2099 24.948 10.5384 24.948 9.70993C24.948 8.8815 24.2764 8.20993 23.448 8.20993C22.6196 8.20993 21.948 8.8815 21.948 9.70993C21.948 10.5384 22.6196 11.2099 23.448 11.2099Z" fill="#8A4F37"/>
</svg>
