<svg width="1.6875rem" height="1.6875rem" viewBox="0 0 27 27" fill="none" xmlns="http://www.w3.org/2000/svg">
<path d="M22.6462 4.45558C21.4561 3.25438 20.0387 2.30207 18.4768 1.65412C16.9149 1.00618 15.2396 0.675575 13.5487 0.681568C6.46306 0.681568 0.688457 6.45455 0.681967 13.5418C0.681967 15.8117 1.27582 18.02 2.39699 19.9751L0.578125 26.6421L7.39926 24.8541C9.28628 25.881 11.4003 26.4193 13.5487 26.4198H13.5552C20.6424 26.4198 26.4154 20.6469 26.4219 13.5531C26.4235 11.8625 26.0906 10.1883 25.4423 8.62693C24.794 7.06555 23.8432 5.64787 22.6446 4.45558H22.6462ZM13.5487 24.2424C11.6325 24.243 9.75146 23.7274 8.10344 22.7497L7.71404 22.516L3.66743 23.5772L4.74804 19.6295L4.49493 19.2223C3.42374 17.5191 2.85721 15.5473 2.86103 13.5353C2.86103 7.65198 7.65887 2.85252 13.5552 2.85252C14.9599 2.85 16.3512 3.12555 17.6489 3.66329C18.9465 4.20102 20.125 4.99031 21.1162 5.98564C22.1108 6.97708 22.8994 8.15565 23.4363 9.45337C23.9732 10.7511 24.2479 12.1423 24.2444 13.5466C24.2379 19.4511 19.4401 24.2424 13.5487 24.2424ZM19.4141 16.2368C19.0945 16.0762 17.5158 15.299 17.2188 15.1887C16.9235 15.0832 16.7077 15.028 16.4968 15.3493C16.281 15.6689 15.6645 16.3974 15.4795 16.6068C15.2945 16.8225 15.1031 16.8469 14.7818 16.6879C14.4622 16.5256 13.4254 16.1881 12.1987 15.0897C11.2414 14.2378 10.6005 13.1832 10.4091 12.8636C10.2241 12.5423 10.3912 12.3703 10.5519 12.2097C10.693 12.0669 10.8715 11.8333 11.0321 11.6483C11.1944 11.4633 11.2479 11.327 11.3534 11.1128C11.4588 10.8954 11.4085 10.7105 11.329 10.5498C11.2479 10.3892 10.607 8.80398 10.3361 8.1647C10.0764 7.53353 9.81197 7.62115 9.61402 7.61304C9.42906 7.60168 9.21326 7.60168 8.99746 7.60168C8.8345 7.60573 8.67413 7.64342 8.52643 7.71239C8.37873 7.78135 8.24687 7.88011 8.13914 8.00245C7.84384 8.32371 7.01797 9.1009 7.01797 10.6861C7.01797 12.2713 8.16997 13.7949 8.33222 14.0107C8.49123 14.2265 10.594 17.4699 13.8213 18.8653C14.5839 19.1979 15.1842 19.3943 15.6531 19.5435C16.4238 19.7902 17.1199 19.7528 17.6748 19.6733C18.2913 19.5792 19.5748 18.8945 19.8457 18.1433C20.1118 17.3904 20.1118 16.7479 20.0307 16.6132C19.9512 16.4769 19.7354 16.3974 19.4141 16.2368Z" fill="#F8EFE8"/>
</svg>
