<svg width="29" height="30" viewBox="0 0 29 30" fill="none" xmlns="http://www.w3.org/2000/svg">
<path d="M24.7593 4.63527C23.4389 3.30264 21.8665 2.24613 20.1337 1.52729C18.4009 0.808461 16.5423 0.441682 14.6663 0.448331C6.80549 0.448331 0.399076 6.85294 0.391876 14.7156C0.391876 17.2339 1.0507 19.6838 2.29454 21.8528L0.276672 29.2493L7.84412 27.2656C9.9376 28.4049 12.2829 29.002 14.6663 29.0027H14.6735C22.5362 29.0027 28.9408 22.598 28.948 14.7282C28.9498 12.8526 28.5805 10.9952 27.8613 9.263C27.1421 7.53079 26.0872 5.95801 24.7575 4.63527H24.7593ZM14.6663 26.587C12.5405 26.5877 10.4537 26.0156 8.62534 24.9309L8.19333 24.6717L3.70398 25.849L4.90282 21.4694L4.62201 21.0176C3.43363 19.1281 2.80512 16.9405 2.80935 14.7084C2.80935 8.18138 8.13213 2.85681 14.6735 2.85681C16.2319 2.85401 17.7755 3.15971 19.2151 3.75628C20.6548 4.35285 21.9622 5.22849 23.0618 6.33272C24.1653 7.43265 25.0401 8.74017 25.6358 10.1799C26.2314 11.6196 26.5361 13.1629 26.5323 14.721C26.5251 21.2714 21.2024 26.587 14.6663 26.587ZM21.1736 17.7055C20.8189 17.5273 19.0675 16.6651 18.7381 16.5427C18.4105 16.4256 18.1711 16.3644 17.937 16.7209C17.6976 17.0755 17.0136 17.8837 16.8084 18.1159C16.6032 18.3553 16.3908 18.3823 16.0344 18.2059C15.6798 18.0259 14.5295 17.6515 13.1687 16.4328C12.1067 15.4878 11.3956 14.3178 11.1832 13.9632C10.978 13.6068 11.1634 13.416 11.3416 13.2377C11.4982 13.0793 11.6962 12.8201 11.8745 12.6149C12.0545 12.4097 12.1139 12.2585 12.2309 12.0209C12.3479 11.7797 12.2921 11.5745 12.2039 11.3963C12.1139 11.2181 11.4028 9.45942 11.1022 8.7502C10.8142 8.04998 10.5208 8.14718 10.3012 8.13818C10.096 8.12558 9.85658 8.12558 9.61718 8.12558C9.43639 8.13007 9.25847 8.17189 9.09461 8.2484C8.93074 8.32491 8.78446 8.43447 8.66495 8.57019C8.33734 8.92661 7.42111 9.78883 7.42111 11.5475C7.42111 13.3061 8.69915 14.9964 8.87915 15.2358C9.05556 15.4752 11.3884 19.0735 14.9688 20.6216C15.8148 20.9906 16.4808 21.2084 17.001 21.374C17.856 21.6476 18.6283 21.6062 19.2439 21.518C19.9279 21.4136 21.3518 20.654 21.6524 19.8206C21.9476 18.9853 21.9476 18.2725 21.8576 18.1231C21.7694 17.9719 21.53 17.8837 21.1736 17.7055Z" fill="#574A44"/>
</svg>
