<svg width="3.5rem" height="3.375rem" viewBox="0 0 49 46" fill="none" xmlns="http://www.w3.org/2000/svg">
<rect y="0.771851" width="46.712" height="44.7366" rx="13.5533" fill="#01A95C"/>
<mask id="mask0_2_3424" style="mask-type:alpha" maskUnits="userSpaceOnUse" x="0" y="0" width="47" height="46">
<rect y="0.771851" width="46.712" height="44.7366" rx="13.5533" fill="#01A95C"/>
</mask>
<g mask="url(#mask0_2_3424)">
<path d="M4.44879 47.0857C9.50344 40.3462 22.6302 27.8539 23.0635 27.1318L45.6289 46.0867L4.44879 47.0857Z" fill="#2F8FFE"/>
<path d="M50.245 47.302C40.7776 41.3634 23.2342 25.9492 22.2197 25.4399L48.8978 -0.990201L50.245 47.302Z" fill="#ECECEE"/>
<rect x="22.1938" y="27.1318" width="6.49883" height="50.4643" transform="rotate(-45 22.1938 27.1318)" fill="white"/>
<rect x="34.3685" y="6.95215" width="5.11955" height="50.4643" transform="rotate(41.3401 34.3685 6.95215)" fill="#FEE40E"/>
</g>
<path d="M16.34 11.3817H10.4385V13.8262H13.8098C13.6645 14.6164 13.2234 15.2847 12.5586 15.7325C11.9967 16.1111 11.2797 16.335 10.4368 16.335C8.80508 16.335 7.42485 15.2238 6.93156 13.7307C6.80742 13.3521 6.73555 12.9472 6.73555 12.5307C6.73555 12.1142 6.80742 11.7093 6.93156 11.3306C7.42648 9.83921 8.80671 8.72805 10.4385 8.72805C11.3581 8.72805 12.183 9.04741 12.8331 9.67295L14.6298 7.86052C13.5436 6.8399 12.1274 6.21436 10.4385 6.21436C7.99001 6.21436 5.87148 7.63006 4.84081 9.69435C4.41612 10.5471 4.17438 11.5117 4.17438 12.5323C4.17438 13.553 4.41612 14.516 4.84081 15.3687C5.87148 17.433 7.99001 18.8487 10.4385 18.8487C12.1307 18.8487 13.5485 18.2824 14.5841 17.3177C15.7683 16.2181 16.4527 14.5983 16.4527 12.6739C16.4527 12.2261 16.4135 11.7965 16.34 11.3817Z" fill="white"/>
<circle cx="36.3993" cy="10.6049" r="5.07342" fill="#7D2523"/>
<g filter="url(#filter0_d_2_3424)">
<path fill-rule="evenodd" clip-rule="evenodd" d="M29.0813 4.38341C30.4888 2.60411 32.9653 0.771851 36.3796 0.771851C38.0243 0.771851 39.2663 1.22486 39.2839 1.2313L39.29 1.22845V1.22853C41.6464 2.03133 43.6634 3.71673 44.8833 6.20202L44.8815 6.20438C44.9028 6.24287 45.9588 8.16494 45.9588 10.924C45.9588 13.9036 44.8661 16.0371 44.8661 16.0371C44.1044 17.7008 42.546 19.7455 41.9228 20.5632L41.9227 20.5633L41.9225 20.5636C41.8183 20.7003 41.7403 20.8027 41.6965 20.8632C40.5682 22.356 39.4198 23.9093 38.4957 25.6573C38.0247 26.5627 37.7262 27.5209 37.3458 28.7764C37.2942 28.9388 37.2384 29.2514 37.1731 29.6169C37.0065 30.55 36.7783 31.8273 36.4028 31.8273C36.0761 31.8273 35.8685 30.7509 35.6912 29.8322L35.6912 29.8322C35.6083 29.4021 35.532 29.0067 35.4533 28.7724C35.0508 27.4429 34.8212 26.6947 34.2705 25.5913C33.6255 24.4181 32.904 23.2937 32.1113 22.2262L32.1119 22.2226C31.7522 21.7096 31.3464 21.1773 30.9254 20.6252C29.7831 19.127 28.5291 17.4823 27.7817 15.6784L27.7816 15.6784C27.7816 15.6784 26.8397 13.7293 26.8397 10.9057C26.8397 8.23707 27.8215 5.90435 29.0813 4.38349V4.38341ZM33.584 8.38716L33.5862 8.38912L33.5665 8.41379C33.4416 8.5754 32.7467 9.53445 32.7467 10.8756C32.7467 13.0244 34.3783 14.7286 36.398 14.7286C37.785 14.7286 38.6959 13.9203 39.0475 13.5403L39.2107 13.3439L39.2778 13.2552C39.4746 12.9781 40.0519 12.0618 40.0519 10.8471C40.0519 8.64816 38.2996 7.00545 36.4066 7.00545C34.6165 7.00545 33.5884 8.3845 33.5884 8.3845V8.38166L33.584 8.38716Z" fill="#EA4335"/>
</g>
<defs>
<filter id="filter0_d_2_3424" x="25.7103" y="0.771851" width="22.884" height="35.7615" filterUnits="userSpaceOnUse" color-interpolation-filters="sRGB">
<feFlood flood-opacity="0" result="BackgroundImageFix"/>
<feColorMatrix in="SourceAlpha" type="matrix" values="0 0 0 0 0 0 0 0 0 0 0 0 0 0 0 0 0 0 127 0" result="hardAlpha"/>
<feOffset dx="0.752964" dy="2.82361"/>
<feGaussianBlur stdDeviation="0.941204"/>
<feComposite in2="hardAlpha" operator="out"/>
<feColorMatrix type="matrix" values="0 0 0 0 0.114635 0 0 0 0 0.114635 0 0 0 0 0.129167 0 0 0 0.23 0"/>
<feBlend mode="normal" in2="BackgroundImageFix" result="effect1_dropShadow_2_3424"/>
<feBlend mode="normal" in="SourceGraphic" in2="effect1_dropShadow_2_3424" result="shape"/>
</filter>
</defs>
</svg>
