<svg width="3.5rem" height="3.375rem" viewBox="0 0 48 46" fill="none" xmlns="http://www.w3.org/2000/svg">
<rect x="0.712158" y="0.771851" width="46.712" height="44.7366" rx="13.5533" fill="url(#paint0_linear_2_3426)"/>
<path d="M39.6952 19.6917C40.6168 25.1415 37.7313 30.3501 32.5119 32.9023C33.3371 35.0668 31.7249 37.3581 29.4449 37.3581C28.6048 37.3575 27.797 37.0345 27.188 36.4559C26.579 35.8772 26.2152 35.0869 26.1716 34.248C25.7629 34.26 22.0967 34.248 21.3267 34.2073C21.3093 34.6381 21.2072 35.0612 21.0262 35.4524C20.8452 35.8437 20.5889 36.1955 20.2718 36.4876C19.9548 36.7798 19.5833 37.0066 19.1786 37.1551C18.7739 37.3036 18.3439 37.3708 17.9131 37.3531C15.764 37.2667 14.2349 35.1417 14.9299 33.042C12.5681 32.2098 10.3256 30.8287 8.60674 28.5481C7.78159 27.4513 8.57627 25.8949 9.92952 25.8949C12.869 25.8949 11.9746 22.4566 12.6684 18.8964C13.8382 12.9337 20.0788 8.92224 26.1069 8.92224C32.6116 8.92224 38.6206 13.4079 39.6952 19.6917ZM31.5287 31.5364C34.1946 30.319 36.691 27.9368 37.6405 25.0533C40.2099 17.2404 33.5688 10.5814 26.1069 10.5814C20.8101 10.5814 15.2962 14.0991 14.2965 19.2137C13.6916 22.3182 14.6138 27.5509 9.93269 27.5509C11.5157 29.6525 13.6351 30.8909 15.882 31.6164C17.4473 30.2327 19.936 30.6344 20.9491 32.5266C21.8516 32.59 25.9755 32.6015 26.5283 32.5786C26.7516 32.1426 27.0696 31.762 27.4591 31.465C27.8487 31.1679 28.2998 30.9618 28.7793 30.8619C29.2589 30.7619 29.7548 30.7706 30.2305 30.8873C30.7063 31.0041 31.1499 31.2258 31.5287 31.5364ZM20.8405 18.7688C20.8405 16.5638 24.0675 16.5631 24.0675 18.7688C24.0675 20.9745 20.8405 20.9739 20.8405 18.7688ZM28.2396 18.7688C28.2396 16.5638 31.4678 16.5631 31.4678 18.7688C31.4678 20.9745 28.2396 20.9745 28.2396 18.7688ZM20.4571 23.2557C20.2388 22.1805 21.865 21.8479 22.0833 22.925L22.0871 22.9428C22.3499 24.3024 23.9818 25.7356 26.157 25.6766C28.4217 25.6169 29.9178 24.2668 30.2263 22.9618C30.5094 21.9431 32.0416 22.3042 31.8429 23.3427C31.511 24.7505 29.8619 27.278 26.0377 27.3351C23.3369 27.3351 20.904 25.568 20.4584 23.257L20.4571 23.2557Z" fill="#244344"/>
<path fill-rule="evenodd" clip-rule="evenodd" d="M31.5287 31.5364C34.1946 30.319 36.691 27.9368 37.6405 25.0533C40.2099 17.2404 33.5688 10.5814 26.1069 10.5814C20.8101 10.5814 15.2962 14.0991 14.2965 19.2137C13.6916 22.3182 14.6138 27.5509 9.93269 27.5509C11.5157 29.6525 13.6351 30.8909 15.882 31.6164C17.4473 30.2327 19.936 30.6344 20.9491 32.5266C21.8516 32.59 25.9755 32.6015 26.5283 32.5786C26.7516 32.1426 27.0696 31.762 27.4591 31.465C27.8487 31.1679 28.2998 30.9618 28.7793 30.8619C29.2589 30.7619 29.7548 30.7706 30.2305 30.8873C30.7063 31.0041 31.1499 31.2258 31.5287 31.5364ZM20.8405 18.7688C20.8405 16.5638 24.0675 16.5631 24.0675 18.7688C24.0675 20.9745 20.8405 20.9739 20.8405 18.7688ZM28.2396 18.7688C28.2396 16.5638 31.4678 16.5631 31.4678 18.7688C31.4678 20.9745 28.2396 20.9745 28.2396 18.7688ZM22.0833 22.925C21.865 21.8479 20.2388 22.1805 20.4571 23.2557L20.4584 23.257C20.904 25.568 23.3369 27.3351 26.0377 27.3351C29.8619 27.278 31.511 24.7505 31.8429 23.3427C32.0416 22.3042 30.5094 21.9431 30.2263 22.9618C29.9178 24.2668 28.4217 25.6169 26.157 25.6766C23.9818 25.7356 22.3499 24.3024 22.0871 22.9428L22.0833 22.925Z" fill="white"/>
<circle cx="18.1368" cy="34.106" r="1.41693" fill="#2C5056"/>
<circle cx="29.498" cy="34.106" r="1.41693" fill="#2C5056"/>
<defs>
<linearGradient id="paint0_linear_2_3426" x1="24.0682" y1="0.771851" x2="24.0682" y2="45.5085" gradientUnits="userSpaceOnUse">
<stop stop-color="#26C3DF"/>
<stop offset="0.78125" stop-color="#66D8ED"/>
<stop offset="1" stop-color="#9BEDFC"/>
</linearGradient>
</defs>
</svg>
